<svg width="372" height="327" viewBox="0 0 372 327" fill="none" xmlns="http://www.w3.org/2000/svg">
<path opacity="0.1" d="M370.294 225.457C360.134 172.63 300.608 130.411 288.998 75.3581C267.897 5.31944 198.346 -5.7538 153.151 24.6639C81.5381 72.8612 157.934 84.821 17.525 198.853C-17.1451 227.01 -6.09768 351.301 102.972 322.776C161.669 307.425 179.513 305.271 205.915 302.744C272.462 296.373 387.35 314.134 370.294 225.456V225.457Z" fill="#7B5FF1"/>
<path d="M290.795 238.697L187.939 294.709L85.2388 238.697V154.115H290.795V238.697Z" fill="white"/>
<path d="M187.939 295.568C187.805 295.568 187.671 295.535 187.55 295.468L84.8494 239.456C84.5768 239.308 84.4055 239.015 84.4055 238.697V154.116C84.4055 153.642 84.7788 153.257 85.2387 153.257H290.795C291.255 153.257 291.628 153.642 291.628 154.116V238.697C291.628 239.016 291.458 239.308 291.184 239.457L188.328 295.468C188.207 295.535 188.073 295.568 187.939 295.568ZM86.0719 238.18L187.939 293.737L289.962 238.179V154.975H86.0719V238.18Z" fill="#262626"/>
<path d="M290.795 135.965L187.939 79.9538L234.159 56.9833L337.014 112.996L290.795 135.965Z" fill="white"/>
<path d="M290.795 136.824C290.661 136.824 290.528 136.791 290.406 136.725L187.55 80.7133C187.272 80.5614 187.101 80.2617 187.106 79.9373C187.112 79.6136 187.294 79.3209 187.577 79.1793L233.797 56.2088C234.035 56.0899 234.314 56.0947 234.548 56.2232L337.404 112.235C337.682 112.387 337.853 112.686 337.848 113.011C337.842 113.334 337.66 113.627 337.376 113.769L291.157 136.739C291.042 136.796 290.919 136.824 290.795 136.824ZM189.788 79.9889L290.812 135.003L335.166 112.96L234.141 57.9462L189.788 79.9889Z" fill="#262626"/>
<path d="M85.2388 135.965L188.095 79.9538L141.875 56.9833L39.0193 112.996L85.2388 135.965Z" fill="white"/>
<path d="M85.2388 136.824C85.1148 136.824 84.9915 136.796 84.8769 136.739L38.6574 113.769C38.3741 113.628 38.1922 113.334 38.1862 113.011C38.1808 112.686 38.3521 112.387 38.6301 112.235L141.486 56.2232C141.72 56.0947 141.998 56.0906 142.237 56.2088L188.457 79.1793C188.74 79.3202 188.922 79.6136 188.928 79.9373C188.933 80.2617 188.762 80.5614 188.484 80.7133L85.6281 136.725C85.5061 136.791 85.3728 136.824 85.2388 136.824ZM40.8677 112.96L85.2215 135.003L186.246 79.9882L141.893 57.9455L40.8677 112.96V112.96Z" fill="#262626"/>
<path d="M85.2388 135.965L188.095 191.978L135.21 221.82L32.3538 165.809L85.2388 135.965Z" fill="white"/>
<path d="M135.21 222.679C135.076 222.679 134.942 222.646 134.82 222.579L31.9645 166.568C31.6932 166.42 31.5225 166.131 31.5205 165.814C31.5185 165.498 31.6845 165.206 31.9538 165.055L84.8388 135.211C85.0847 135.073 85.38 135.071 85.628 135.205L188.484 191.217C188.755 191.365 188.926 191.654 188.928 191.971C188.93 192.287 188.764 192.579 188.494 192.73L135.609 222.573C135.485 222.644 135.347 222.679 135.21 222.679ZM34.1134 165.795L135.203 220.845L186.336 191.991L85.2461 136.941L34.1134 165.795Z" fill="#262626"/>
<path d="M290.795 135.965L187.939 191.978L240.824 221.82L343.68 165.809L290.795 135.965Z" fill="white"/>
<path d="M240.824 222.679C240.686 222.679 240.549 222.644 240.424 222.574L187.539 192.731C187.27 192.579 187.104 192.287 187.106 191.971C187.108 191.655 187.279 191.365 187.55 191.217L290.406 135.206C290.654 135.071 290.95 135.073 291.195 135.212L344.08 165.055C344.349 165.207 344.515 165.499 344.513 165.815C344.511 166.132 344.341 166.421 344.069 166.569L241.213 222.58C241.091 222.647 240.958 222.68 240.824 222.68V222.679ZM189.698 191.991L240.831 220.845L341.92 165.795L290.788 136.941L189.698 191.991Z" fill="#262626"/>
<path d="M188.095 79.9538L85.2388 135.965L187.939 191.978L290.795 135.965L188.095 79.9538Z" fill="#262626"/>
<path d="M188.772 191.977H187.106V294.709H188.772V191.977Z" fill="#262626"/>
<path d="M130.309 130.88C130.177 130.88 130.042 130.839 129.925 130.753C129.625 130.534 129.553 130.105 129.767 129.795C129.89 129.615 141.937 111.658 128.488 95.2881C122.97 88.5715 115.506 85.9983 109.094 85.9983C109.035 85.9983 108.975 85.9983 108.916 85.9983C110.193 90.5728 109.965 94.64 108.157 97.7602C106.448 100.71 103.398 102.443 100.371 102.172C97.7027 101.935 95.5944 100.243 94.5859 97.5321C93.1068 93.5542 94.6552 89.6958 98.7265 87.2114C100.907 85.8808 103.836 84.9819 107.118 84.7235C106.283 82.3593 105.042 79.8583 103.408 77.2866C98.5526 69.64 89.7027 64.3467 79.1265 62.7639C70.1647 61.4224 61.5755 63.0024 57.2423 66.7865C56.9596 67.0325 56.539 66.9947 56.3031 66.7061C56.0651 66.4168 56.0998 65.9824 56.3804 65.737C60.9923 61.7097 69.9954 60.008 79.3178 61.4038C90.272 63.043 99.4584 68.5576 104.524 76.5333C106.301 79.3326 107.632 82.0644 108.502 84.6534C115.398 84.4871 123.544 87.1447 129.504 94.3988C143.63 111.594 130.982 130.402 130.852 130.59C130.722 130.778 130.517 130.879 130.308 130.879L130.309 130.88ZM107.548 86.0499C104.359 86.2595 101.509 87.1124 99.4064 88.3962C95.8897 90.5426 94.5872 93.6937 95.8317 97.042C96.6502 99.2427 98.3466 100.614 100.487 100.806C102.994 101.029 105.563 99.5581 107.013 97.0572C108.674 94.1912 108.827 90.3817 107.548 86.0499Z" fill="#292A2E"/>
<path d="M45.737 77.87C44.7479 78.1766 43.6947 78.1264 42.7249 77.7175C41.6051 77.2446 40.7299 76.3512 40.262 75.2C39.7934 74.0488 39.7881 72.7788 40.246 71.6235C40.7046 70.4689 41.5711 69.5665 42.6876 69.0833C44.9878 68.0896 47.6534 69.2084 48.6192 71.5843C49.5857 73.9609 48.4972 76.7044 46.193 77.701C46.043 77.7656 45.891 77.8219 45.737 77.87ZM43.5208 70.2331C43.4134 70.2661 43.3075 70.3053 43.2021 70.3513C42.4143 70.6922 41.8024 71.3286 41.4791 72.1437C41.1558 72.9595 41.1598 73.8557 41.4898 74.6681C41.8204 75.4804 42.4383 76.1113 43.2288 76.4447C44.0193 76.778 44.8879 76.7745 45.6764 76.433C47.3028 75.7299 48.0713 73.7932 47.3894 72.1156C46.7509 70.5472 45.0658 69.7534 43.5201 70.2325L43.5208 70.2331Z" fill="#292A2E"/>
<path d="M45.7289 67.0978C44.7391 67.405 43.6859 67.3542 42.7161 66.9453C41.5956 66.4731 40.7205 65.579 40.2532 64.4278C39.7846 63.2766 39.7786 62.0073 40.2372 60.852C40.6951 59.6967 41.5623 58.7943 42.6795 58.3111C43.7939 57.8307 45.0277 57.8232 46.1475 58.2953C47.268 58.7675 48.1432 59.6616 48.6104 60.8128C49.079 61.9633 49.085 63.2333 48.6264 64.3886C48.1685 65.5439 47.3013 66.4463 46.1842 66.9295C46.0342 66.9941 45.8822 67.0504 45.7289 67.0978ZM43.5153 59.4596C43.4067 59.4932 43.3 59.5324 43.194 59.5785C42.4062 59.9193 41.7943 60.5557 41.4703 61.3708C41.1477 62.1859 41.151 63.0828 41.4817 63.8952C41.8123 64.7075 42.4295 65.3391 43.2207 65.6718C44.0112 66.0051 44.8757 66.0023 45.6689 65.6608C46.4568 65.3199 47.0687 64.6835 47.3926 63.8684C47.7153 63.0533 47.7119 62.1564 47.3813 61.344C47.0507 60.5317 46.4335 59.9001 45.6423 59.5675C44.9577 59.2788 44.2145 59.2431 43.516 59.4596H43.5153Z" fill="#292A2E"/>
<path d="M44.4353 71.9582C47.7087 71.9582 50.3623 70.1307 50.3623 67.8765C50.3623 65.6222 47.7087 63.7948 44.4353 63.7948C41.1619 63.7948 38.5083 65.6222 38.5083 67.8765C38.5083 70.1307 41.1619 71.9582 44.4353 71.9582Z" fill="white"/>
<path d="M47.0574 72.2585C46.2422 72.5114 45.3543 72.6447 44.4398 72.6454C40.7425 72.6489 37.8443 70.5561 37.8423 67.882C37.8403 65.2072 40.7345 63.111 44.4312 63.1069C46.1449 63.1055 47.7653 63.5694 48.9937 64.414C50.3048 65.315 51.0274 66.5425 51.0287 67.8696C51.03 69.1967 50.3095 70.4256 48.9997 71.3293C48.4278 71.7238 47.7699 72.0365 47.0574 72.2571V72.2585ZM42.2182 64.8113C40.4372 65.3638 39.1747 66.548 39.1754 67.8806C39.1767 69.7204 41.5863 71.273 44.4378 71.2709C45.8916 71.2695 47.2487 70.8847 48.2578 70.1878C49.185 69.5479 49.6956 68.7253 49.6949 67.8724C49.6943 67.0195 49.1824 66.1975 48.2538 65.559C47.242 64.8635 45.8849 64.4814 44.4325 64.4828C43.6466 64.4828 42.8948 64.601 42.2182 64.8113Z" fill="#292A2E"/>
<path d="M45.889 71.8338L45.749 63.8959L43.8347 63.8161L43.7007 71.9266L45.889 71.8338Z" fill="#292A2E"/>
<path d="M36.5719 69.6036C36.9098 69.6036 37.1838 69.3211 37.1838 68.9727C37.1838 68.6242 36.9098 68.3418 36.5719 68.3418C36.2339 68.3418 35.96 68.6242 35.96 68.9727C35.96 69.3211 36.2339 69.6036 36.5719 69.6036Z" fill="#292A2E"/>
<path d="M37.0499 66.2277C37.3878 66.2277 37.6618 65.9453 37.6618 65.5968C37.6618 65.2484 37.3878 64.9659 37.0499 64.9659C36.7119 64.9659 36.438 65.2484 36.438 65.5968C36.438 65.9453 36.7119 66.2277 37.0499 66.2277Z" fill="#292A2E"/>
<path d="M235.043 91.2456C234.757 91.2456 234.494 91.0559 234.406 90.7597C234.369 90.6374 230.81 78.4137 232.669 64.6292C234.392 51.8474 241.23 35.0691 264.017 27.7223C267.724 26.5271 270.983 25.7883 273.847 25.3986C274.921 18.484 279.006 10.9832 288.14 5.80809C309.845 -6.48848 324.506 4.5442 324.651 4.65692C324.944 4.88509 325.003 5.31532 324.783 5.6184C324.562 5.92217 324.145 5.98265 323.85 5.75586C323.711 5.64864 309.7 -4.83973 288.782 7.01287C280.246 11.8492 276.338 18.7906 275.227 25.2344C285.278 24.2138 290.093 27.6707 292.252 30.2823C294.999 33.6039 295.605 38.1728 293.795 41.9233C292.262 45.1025 289.308 46.8846 285.907 46.6716C280.294 46.3321 275.648 41.4635 274.074 34.2678C273.584 32.0266 273.407 29.494 273.665 26.8426C270.803 27.2446 267.705 27.9745 264.415 29.0349C246.655 34.7612 236.418 46.8008 233.989 64.8188C232.17 78.3058 235.645 90.2388 235.681 90.3577C235.789 90.7205 235.59 91.1054 235.239 91.2161C235.173 91.2367 235.108 91.2456 235.043 91.2456ZM275.024 26.6735C274.735 29.2796 274.895 31.771 275.374 33.9647C276.815 40.5473 280.98 44.996 285.985 45.2991C288.833 45.4668 291.313 43.9809 292.602 41.3102C294.173 38.0539 293.637 34.0754 291.237 31.173C288.12 27.4047 282.433 25.8825 275.024 26.6735Z" fill="#292A2E"/>
<path d="M340.178 11.6038C339.276 11.6038 338.391 11.3378 337.613 10.8224C336.544 10.1131 335.806 9.01762 335.536 7.73655C334.98 5.09264 336.613 2.47347 339.178 1.89891C341.743 1.32436 344.281 3.00885 344.839 5.65276C345.396 8.29736 343.763 10.9158 341.197 11.4904C340.859 11.5667 340.517 11.6038 340.178 11.6038ZM340.188 3.16073C339.948 3.16073 339.704 3.18754 339.46 3.24183C337.614 3.65557 336.439 5.54074 336.839 7.44447C337.033 8.36678 337.565 9.15576 338.334 9.6664C339.104 10.177 340.022 10.3489 340.915 10.1475C342.761 9.73375 343.937 7.84858 343.536 5.94485C343.188 4.29266 341.765 3.16073 340.188 3.16073Z" fill="#292A2E"/>
<path d="M338.171 22.8207C337.269 22.8207 336.383 22.5547 335.606 22.0393C334.536 21.33 333.799 20.2345 333.529 18.9534C333.26 17.6724 333.489 16.3597 334.178 15.2573C334.865 14.1549 335.928 13.3948 337.171 13.1165C338.412 12.8374 339.686 13.0752 340.755 13.7845C341.825 14.4938 342.562 15.5893 342.832 16.8703C343.101 18.1514 342.872 19.4641 342.183 20.5664C341.496 21.6688 340.433 22.4289 339.19 22.7073C338.851 22.7836 338.51 22.8207 338.171 22.8207ZM338.188 14.3776C337.943 14.3776 337.698 14.4044 337.453 14.4594C336.558 14.6601 335.794 15.2071 335.298 16.0009C334.804 16.7947 334.638 17.7397 334.832 18.662C335.026 19.5843 335.558 20.3733 336.327 20.884C337.097 21.3953 338.014 21.5657 338.908 21.365C339.802 21.1644 340.567 20.6173 341.062 19.8235C341.557 19.0297 341.723 18.0847 341.528 17.1624C341.334 16.2401 340.803 15.4511 340.034 14.9405C339.474 14.5694 338.837 14.3783 338.187 14.3783L338.188 14.3776Z" fill="#292A2E"/>
<path d="M345.33 13.6116C345.75 11.2642 343.327 8.8354 339.918 8.18685C336.51 7.5383 333.406 8.91556 332.986 11.263C332.565 13.6105 334.988 16.0392 338.397 16.6878C341.806 17.3363 344.91 15.9591 345.33 13.6116Z" fill="white"/>
<path d="M340.078 17.5363C339.488 17.5363 338.884 17.4792 338.279 17.3645C336.502 17.0263 334.908 16.2243 333.793 15.1061C332.606 13.9165 332.087 12.5076 332.333 11.1392C332.578 9.77086 333.55 8.6458 335.07 7.97091C336.499 7.33656 338.263 7.17437 340.042 7.51182C341.819 7.84995 343.412 8.65199 344.527 9.77017C345.714 10.9598 346.233 12.3687 345.987 13.7371C345.743 15.1054 344.77 16.2305 343.25 16.9054C342.308 17.3232 341.219 17.5363 340.078 17.5363ZM338.237 8.71316C337.279 8.71316 336.374 8.8891 335.597 9.23342C334.499 9.72069 333.805 10.4863 333.643 11.3887C333.482 12.2911 333.865 13.2615 334.722 14.1206C335.651 15.0511 336.999 15.724 338.52 16.0126C340.04 16.3006 341.533 16.17 342.722 15.6429C343.82 15.1556 344.514 14.39 344.676 13.4876C344.837 12.5852 344.455 11.6148 343.598 10.755C342.668 9.82447 341.32 9.15232 339.8 8.86298C339.272 8.76264 338.747 8.71247 338.237 8.71247V8.71316Z" fill="#292A2E"/>
<path d="M338.388 8.02864L337.047 16.3212L339.025 16.7858L340.683 8.36746L338.388 8.02864Z" fill="#292A2E"/>
<path d="M346.423 16.95C346.781 16.95 347.071 16.651 347.071 16.282C347.071 15.9131 346.781 15.614 346.423 15.614C346.065 15.614 345.775 15.9131 345.775 16.282C345.775 16.651 346.065 16.95 346.423 16.95Z" fill="#292A2E"/>
<path d="M347.552 13.5302C347.91 13.5302 348.2 13.2311 348.2 12.8622C348.2 12.4933 347.91 12.1942 347.552 12.1942C347.194 12.1942 346.904 12.4933 346.904 12.8622C346.904 13.2311 347.194 13.5302 347.552 13.5302Z" fill="#292A2E"/>
</svg>
