<svg width="28" height="30" viewBox="0 0 28 30" fill="none" xmlns="http://www.w3.org/2000/svg">
<path d="M4.97 12.6837C4.64911 15.3157 4.4579 17.964 4.39717 20.6175C7.75577 22.1206 10.9715 23.9666 14 26.13C17.0288 23.9666 20.245 22.1206 23.604 20.6175C23.5432 17.964 23.352 15.3157 23.0312 12.6837M23.0312 12.6837C24.052 12.3162 25.0868 11.9762 26.1322 11.6662C22.3248 8.80656 18.2606 6.36111 14 4.36625C9.73933 6.36153 5.67513 8.8074 1.86784 11.6675C2.90999 11.9758 3.94404 12.3147 4.96884 12.6837C8.08223 13.8053 11.1031 15.2026 14 16.8612C16.8965 15.2026 19.9181 13.8052 23.0312 12.6837ZM7.875 18.75C8.10707 18.75 8.32963 18.6512 8.49372 18.4754C8.65782 18.2996 8.75 18.0611 8.75 17.8125C8.75 17.5639 8.65782 17.3254 8.49372 17.1496C8.32963 16.9738 8.10707 16.875 7.875 16.875C7.64294 16.875 7.42038 16.9738 7.25628 17.1496C7.09219 17.3254 7 17.5639 7 17.8125C7 18.0611 7.09219 18.2996 7.25628 18.4754C7.42038 18.6512 7.64294 18.75 7.875 18.75ZM7.875 18.75V14.1562C9.85453 12.8379 11.8992 11.6353 14 10.5537M5.82517 24.9912C6.47614 24.2955 6.99235 23.4688 7.34413 22.5586C7.69591 21.6484 7.87632 20.6726 7.875 19.6875V17.8125" stroke="black" stroke-width="1.5" stroke-linecap="round" stroke-linejoin="round"/>
</svg>
