<svg width="437" height="301" viewBox="0 0 437 301" fill="none" xmlns="http://www.w3.org/2000/svg">
<g clip-path="url(#clip0_19_2)">
<path d="M276.345 19.1965H65.5798V188.135H276.345V19.1965Z" fill="black" stroke="black" stroke-width="1.5" stroke-linecap="round" stroke-linejoin="round"/>
<path d="M276.345 0.388695H65.5798V19.1965H276.345V0.388695Z" fill="white" stroke="#7B5FF1" stroke-width="1.5" stroke-linecap="round" stroke-linejoin="round"/>
<path d="M86.4243 26.2635H77.9319V31.571H86.4243V26.2635Z" fill="white" stroke="black" stroke-width="1.5" stroke-linecap="round" stroke-linejoin="round"/>
<path d="M86.4243 38.8018H77.9319V44.1094H86.4243V38.8018Z" fill="white" stroke="black" stroke-width="1.5" stroke-linecap="round" stroke-linejoin="round"/>
<path d="M86.4243 51.3407H77.9319V56.6482H86.4243V51.3407Z" fill="white" stroke="black" stroke-width="1.5" stroke-linecap="round" stroke-linejoin="round"/>
<path d="M86.4243 63.879H77.9319V69.1866H86.4243V63.879Z" fill="white" stroke="black" stroke-width="1.5" stroke-linecap="round" stroke-linejoin="round"/>
<path d="M86.4243 76.4174H77.9319V81.7249H86.4243V76.4174Z" fill="white" stroke="black" stroke-width="1.5" stroke-linecap="round" stroke-linejoin="round"/>
<path d="M86.4243 88.9557H77.9319V94.2633H86.4243V88.9557Z" fill="white" stroke="black" stroke-width="1.5" stroke-linecap="round" stroke-linejoin="round"/>
<path d="M86.4243 101.495H77.9319V106.802H86.4243V101.495Z" fill="white" stroke="black" stroke-width="1.5" stroke-linecap="round" stroke-linejoin="round"/>
<path d="M86.4243 115.161H77.9319V120.468H86.4243V115.161Z" fill="white" stroke="black" stroke-width="1.5" stroke-linecap="round" stroke-linejoin="round"/>
<path d="M86.4243 127.699H77.9319V133.007H86.4243V127.699Z" fill="white" stroke="black" stroke-width="1.5" stroke-linecap="round" stroke-linejoin="round"/>
<path d="M86.4243 140.237H77.9319V145.545H86.4243V140.237Z" fill="white" stroke="black" stroke-width="1.5" stroke-linecap="round" stroke-linejoin="round"/>
<path d="M86.4243 152.776H77.9319V158.084H86.4243V152.776Z" fill="white" stroke="black" stroke-width="1.5" stroke-linecap="round" stroke-linejoin="round"/>
<path d="M86.4243 165.315H77.9319V170.622H86.4243V165.315Z" fill="white" stroke="black" stroke-width="1.5" stroke-linecap="round" stroke-linejoin="round"/>
<path d="M86.4243 177.853H77.9319V183.16H86.4243V177.853Z" fill="white" stroke="black" stroke-width="1.5" stroke-linecap="round" stroke-linejoin="round"/>
<path d="M169.033 26.2635H101.093V31.571H169.033V26.2635Z" fill="#7B5FF1" stroke="black" stroke-width="1.5" stroke-linecap="round" stroke-linejoin="round"/>
<path d="M159.768 38.8018H121.166V44.1094H159.768V38.8018Z" fill="white" stroke="black" stroke-width="1.5" stroke-linecap="round" stroke-linejoin="round"/>
<path d="M235.428 38.8018H165.945V44.1094H235.428V38.8018Z" fill="#7B5FF1" stroke="black" stroke-width="1.5" stroke-linecap="round" stroke-linejoin="round"/>
<path d="M144.328 63.879H121.166V69.1866H144.328V63.879Z" fill="#7B5FF1" stroke="black" stroke-width="1.5" stroke-linecap="round" stroke-linejoin="round"/>
<path d="M249.325 63.879H226.164V69.1866H249.325V63.879Z" fill="#7B5FF1" stroke="black" stroke-width="1.5" stroke-linecap="round" stroke-linejoin="round"/>
<path d="M219.987 63.879H150.504V69.1866H219.987V63.879Z" fill="white" stroke="black" stroke-width="1.5" stroke-linecap="round" stroke-linejoin="round"/>
<path d="M128.887 51.3407H121.166V56.6482H128.887V51.3407Z" fill="white" stroke="black" stroke-width="1.5" stroke-linecap="round" stroke-linejoin="round"/>
<path d="M204.546 51.3407H135.063V56.6482H204.546V51.3407Z" fill="#7B5FF1" stroke="black" stroke-width="1.5" stroke-linecap="round" stroke-linejoin="round"/>
<path d="M152.048 76.4174H121.166V81.7249H152.048V76.4174Z" fill="white" stroke="black" stroke-width="1.5" stroke-linecap="round" stroke-linejoin="round"/>
<path d="M235.428 76.4174H158.224V81.7249H235.428V76.4174Z" fill="#7B5FF1" stroke="black" stroke-width="1.5" stroke-linecap="round" stroke-linejoin="round"/>
<path d="M144.328 101.495H121.166V106.802H144.328V101.495Z" fill="white" stroke="black" stroke-width="1.5" stroke-linecap="round" stroke-linejoin="round"/>
<path d="M249.325 101.495H218.443V106.802H249.325V101.495Z" fill="white" stroke="black" stroke-width="1.5" stroke-linecap="round" stroke-linejoin="round"/>
<path d="M212.267 101.495H150.504V106.802H212.267V101.495Z" fill="#7B5FF1" stroke="black" stroke-width="1.5" stroke-linecap="round" stroke-linejoin="round"/>
<path d="M175.209 88.9557H121.166V94.2633H175.209V88.9557Z" fill="white" stroke="black" stroke-width="1.5" stroke-linecap="round" stroke-linejoin="round"/>
<path d="M219.987 88.9557H181.385V94.2633H219.987V88.9557Z" fill="white" stroke="black" stroke-width="1.5" stroke-linecap="round" stroke-linejoin="round"/>
<path d="M153.592 115.161H101.093V120.468H153.592V115.161Z" fill="black" stroke="black" stroke-width="1.5" stroke-linecap="round" stroke-linejoin="round"/>
<path d="M167.488 127.699H121.166V133.007H167.488V127.699Z" fill="white" stroke="black" stroke-width="1.5" stroke-linecap="round" stroke-linejoin="round"/>
<path d="M227.707 127.699H173.665V133.007H227.707V127.699Z" fill="white" stroke="black" stroke-width="1.5" stroke-linecap="round" stroke-linejoin="round"/>
<path d="M144.328 152.776H121.166V158.084H144.328V152.776Z" fill="#7B5FF1" stroke="black" stroke-width="1.5" stroke-linecap="round" stroke-linejoin="round"/>
<path d="M249.325 152.776H226.164V158.084H249.325V152.776Z" fill="#7B5FF1" stroke="black" stroke-width="1.5" stroke-linecap="round" stroke-linejoin="round"/>
<path d="M219.987 152.776H150.504V158.084H219.987V152.776Z" fill="white" stroke="black" stroke-width="1.5" stroke-linecap="round" stroke-linejoin="round"/>
<path d="M128.887 140.237H121.166V145.545H128.887V140.237Z" fill="white" stroke="black" stroke-width="1.5" stroke-linecap="round" stroke-linejoin="round"/>
<path d="M204.546 140.237H135.063V145.545H204.546V140.237Z" fill="#7B5FF1" stroke="black" stroke-width="1.5" stroke-linecap="round" stroke-linejoin="round"/>
<path d="M167.488 165.315H121.166V170.622H167.488V165.315Z" fill="white" stroke="black" stroke-width="1.5" stroke-linecap="round" stroke-linejoin="round"/>
<path d="M227.707 165.315H173.665V170.622H227.707V165.315Z" fill="white" stroke="black" stroke-width="1.5" stroke-linecap="round" stroke-linejoin="round"/>
<path d="M128.887 177.853H121.166V183.16H128.887V177.853Z" fill="white" stroke="black" stroke-width="1.5" stroke-linecap="round" stroke-linejoin="round"/>
<path d="M204.546 177.853H135.063V183.16H204.546V177.853Z" fill="#7B5FF1" stroke="black" stroke-width="1.5" stroke-linecap="round" stroke-linejoin="round"/>
<path d="M272.292 22.9466H268.818V184.819H272.292V22.9466Z" fill="white" stroke="black" stroke-width="1.5" stroke-linecap="round" stroke-linejoin="round"/>
<path d="M272.292 117.814H268.818V184.819H272.292V117.814Z" fill="black" stroke="black" stroke-width="1.5" stroke-linecap="round" stroke-linejoin="round"/>
<path d="M38.0522 108.959H0V148.384H38.0522V108.959Z" fill="#7B5FF1"/>
<path d="M32.2901 133.002L32.8334 129.864C32.988 128.969 32.4457 128.108 31.6217 127.939L29.6983 127.547C29.4429 127.495 29.241 127.281 29.1875 127.005L28.9464 125.761C28.8929 125.484 28.998 125.201 29.2123 125.042L30.8288 123.842C31.521 123.328 31.6986 122.303 31.2255 121.551L29.5656 118.915C29.0925 118.164 28.1477 117.971 27.4555 118.485L25.8409 119.683C25.6252 119.843 25.3421 119.846 25.1239 119.691L24.1452 118.997C23.928 118.843 23.8173 118.562 23.8655 118.285L24.2269 116.196C24.3815 115.302 23.8392 114.44 23.0152 114.272L20.1246 113.682C19.3006 113.514 18.5072 114.103 18.352 114.997L17.9907 117.086C17.9424 117.363 17.7453 117.582 17.4908 117.64L16.3451 117.902C16.0906 117.96 15.8295 117.846 15.6829 117.613L14.5778 115.858C14.1047 115.107 13.1599 114.914 12.4677 115.428L10.0396 117.23C9.34741 117.743 9.16982 118.769 9.64292 119.52L10.7467 121.273C10.8942 121.507 10.897 121.815 10.7543 122.052L10.1151 123.113C9.9728 123.35 9.71357 123.47 9.45769 123.418L7.53426 123.025C6.71028 122.857 5.91685 123.446 5.7617 124.341L5.21842 127.479C5.06374 128.373 5.60606 129.235 6.43005 129.403L8.35347 129.795C8.60888 129.848 8.81082 130.062 8.86429 130.338L9.10537 131.582C9.15884 131.858 9.05381 132.142 8.83946 132.301L7.223 133.5C6.53078 134.014 6.35319 135.04 6.82629 135.791L8.48619 138.427C8.95929 139.179 9.90405 139.371 10.5963 138.858L12.2108 137.66C12.4261 137.499 12.7097 137.496 12.9279 137.651L13.9061 138.345C14.1238 138.5 14.2345 138.781 14.1863 139.059L13.8249 141.147C13.6702 142.041 14.2125 142.903 15.0365 143.071L17.9272 143.661C18.7511 143.829 19.5446 143.24 19.6997 142.346L20.0516 140.314C20.1055 140.002 20.3265 139.757 20.612 139.692L21.6532 139.454C21.9397 139.388 22.2342 139.517 22.3994 139.779L23.474 141.485C23.9471 142.237 24.8919 142.43 25.5841 141.916L28.0121 140.114C28.7044 139.6 28.882 138.575 28.4089 137.823L27.3562 136.151C27.1781 135.868 27.1743 135.496 27.3471 135.209L27.8875 134.312C28.0599 134.025 28.374 133.88 28.6834 133.943L30.518 134.317C31.342 134.485 32.1349 133.896 32.2901 133.002Z" fill="white" stroke="black" stroke-width="1.5" stroke-linecap="round" stroke-linejoin="round"/>
<path d="M19.0261 135.424C22.4613 135.424 25.2461 132.401 25.2461 128.671C25.2461 124.942 22.4613 121.919 19.0261 121.919C15.5909 121.919 12.8062 124.942 12.8062 128.671C12.8062 132.401 15.5909 135.424 19.0261 135.424Z" fill="#7B5FF1" stroke="black" stroke-width="1.5" stroke-linecap="round" stroke-linejoin="round"/>
<path d="M350.749 3.831H305.519V35.5487H322.134L328.133 42.0617L334.133 35.5487H350.749V3.831Z" fill="white" stroke="black" stroke-width="1.5" stroke-linecap="round" stroke-linejoin="round"/>
<path d="M326.143 26.1614L331.958 11.791C332.024 11.6288 332.171 11.5246 332.334 11.5246H332.376C332.673 11.5246 332.872 11.8563 332.752 12.1512L326.895 26.5216C326.829 26.6828 326.682 26.7869 326.519 26.7869C326.223 26.7869 326.024 26.4558 326.143 26.1614Z" fill="black"/>
<path d="M334.296 14.2403L344.275 19.8915L334.296 25.5421" stroke="black" stroke-width="1.5" stroke-linecap="round" stroke-linejoin="round"/>
<path d="M322.105 14.2403L312.125 19.8915L322.105 25.5421" stroke="black" stroke-width="1.5" stroke-linecap="round" stroke-linejoin="round"/>
<path d="M135.063 300.469H421.014" stroke="black" stroke-width="1.5" stroke-linecap="round" stroke-linejoin="round"/>
<path d="M254.844 300.607C239.393 300.885 226.069 288.209 226.31 270.524C226.413 263.014 227.295 254.161 232.228 245.757C241.765 229.513 265.066 222.371 276.155 206.656C306.95 163.021 347.404 132.878 382.644 148.671C432.134 170.85 441.709 225.703 434.517 261.092C429.98 283.414 414.63 300.251 394.61 300.611L254.844 300.607L254.844 300.607Z" fill="white" stroke="black" stroke-width="1.5" stroke-linecap="round" stroke-linejoin="round"/>
<path d="M348.251 249.044C348.251 249.044 360.548 231.213 389.905 234.865L348.251 249.044Z" fill="white"/>
<path d="M348.251 249.044C348.251 249.044 360.548 231.213 389.905 234.865" stroke="black" stroke-width="1.5" stroke-linecap="round" stroke-linejoin="round"/>
<path d="M375.362 99.2101C376.153 103.344 373.448 104.97 373.308 107.675C373.163 110.474 375.714 112.476 374.469 116.338C373.188 120.312 370.177 120.237 368.782 122.545C367.388 124.854 367.713 128.83 365.805 130.682C363.924 132.508 360.33 131.719 358.024 132.979C355.795 134.196 354.251 137.82 351.692 138.398C349.133 138.975 346.386 136.32 343.895 136.168C341.317 136.01 338.31 138.289 335.915 137.429C333.485 136.556 332.323 132.769 330.197 131.255C328.07 129.741 325.436 131.313 322.702 128.022C320.744 125.666 321.747 122.079 320.586 119.575C319.465 117.155 316.43 116.703 315.595 112.702C315.017 109.934 317.508 106.942 317.648 104.237C317.793 101.438 315.275 99.4392 316.487 95.574C317.641 91.8927 320.78 91.6745 322.174 89.3662C323.568 87.0579 321.852 84.1017 325.152 81.2295C327.796 78.9273 330.626 80.1929 332.933 78.933C335.162 77.7156 334.288 74.6372 339.264 73.5141C341.824 72.9362 345.01 76.5356 347.501 76.6874C350.079 76.845 351.571 73.4529 355.041 74.4827C358.821 75.6042 358.633 79.1429 360.759 80.6568C362.886 82.1706 366.04 80.8449 368.255 83.8892C370.932 87.5683 369.07 90.609 370.231 93.1127C371.352 95.5325 374.653 95.5097 375.362 99.2101Z" fill="#7B5FF1" stroke="black" stroke-width="1.5" stroke-linecap="round" stroke-linejoin="round"/>
<path d="M353.654 111.198C355.794 111.162 357.498 109.215 357.46 106.849C357.423 104.586 355.804 102.763 353.789 102.642C352.193 95.0313 346.402 89.3081 339.055 89.432C333.531 89.5248 331.567 92.7961 328.956 97.6931C327.575 100.284 327.975 115.481 329.838 118.742C331.084 120.923 333.314 122.386 336.908 123.027L337.082 131.88C337.082 131.88 336.611 140.427 345.168 139.977C353.847 139.522 353.76 131.245 353.76 131.245C353.76 131.245 353.509 112.339 353.579 111.195C353.604 111.195 353.628 111.198 353.653 111.198L353.654 111.198Z" fill="#FFFDFD" stroke="black" stroke-width="1.5" stroke-linecap="round" stroke-linejoin="round"/>
<path d="M344.198 121.419L337.064 130.217L336.908 123.027C336.908 123.027 339.239 123.255 341.386 122.584C343.533 121.913 344.198 121.419 344.198 121.419Z" fill="black" stroke="black" stroke-width="1.5" stroke-linecap="round" stroke-linejoin="round"/>
<path d="M327.257 100.6C327.257 100.6 332.145 98.8193 335.039 94.2627C335.039 94.2627 336.284 97.9077 341.796 97.3174C347.309 96.7271 347.632 99.2018 348.796 101.346C349.96 103.49 353.682 102.671 353.682 102.671L359.566 96.9966L350.989 84.2831L329.321 86.8842L328.458 94.2762L327.258 100.6H327.257Z" fill="#7B5FF1"/>
<path d="M327.257 100.6C327.257 100.6 332.145 98.8193 335.039 94.2627C335.039 94.2627 336.284 97.9077 341.796 97.3174C347.309 96.7271 347.632 99.2018 348.796 101.346C349.96 103.49 353.944 102.654 353.944 102.654" stroke="black" stroke-width="1.5" stroke-linecap="round" stroke-linejoin="round"/>
<path d="M340.517 103.92L340.51 103.846C340.514 103.739 340.493 103.64 340.448 103.547C340.42 103.451 340.37 103.367 340.3 103.297C340.235 103.221 340.158 103.167 340.07 103.136C339.984 103.087 339.893 103.065 339.794 103.069L339.603 103.097C339.482 103.134 339.376 103.201 339.287 103.297L339.175 103.455C339.11 103.576 339.078 103.707 339.077 103.847L339.084 103.92C339.08 104.027 339.101 104.127 339.145 104.22C339.174 104.316 339.224 104.399 339.293 104.47C339.358 104.546 339.435 104.599 339.524 104.631C339.609 104.679 339.701 104.702 339.8 104.697L339.99 104.669C340.112 104.633 340.217 104.566 340.306 104.469L340.419 104.312C340.484 104.191 340.516 104.06 340.517 103.92Z" fill="black"/>
<path d="M332.192 104.555L332.185 104.482C332.189 104.375 332.169 104.276 332.124 104.183C332.095 104.086 332.046 104.003 331.976 103.932C331.911 103.857 331.834 103.803 331.745 103.772C331.66 103.723 331.568 103.701 331.469 103.705L331.279 103.733C331.158 103.77 331.052 103.837 330.963 103.933L330.851 104.091C330.786 104.212 330.753 104.342 330.753 104.483L330.759 104.556C330.756 104.663 330.776 104.763 330.821 104.856C330.85 104.952 330.899 105.035 330.969 105.106C331.034 105.182 331.111 105.235 331.2 105.266C331.285 105.315 331.377 105.337 331.476 105.333L331.666 105.305C331.787 105.269 331.893 105.202 331.982 105.105L332.094 104.948C332.159 104.826 332.192 104.696 332.192 104.555Z" fill="black"/>
<path d="M335.119 108.306L334.716 110.376C334.642 110.758 334.947 111.101 335.3 111.03L336.974 110.696" stroke="black" stroke-width="1.5" stroke-linecap="round" stroke-linejoin="round"/>
<path d="M339.345 101.524C339.345 101.524 341.752 100.603 342.991 102.343" stroke="black" stroke-width="1.5" stroke-linecap="round" stroke-linejoin="round"/>
<path d="M342.117 112.629C342.117 112.629 341.395 115.477 338.099 115.001" stroke="black" stroke-width="1.5" stroke-linecap="round" stroke-linejoin="round"/>
<path d="M329.99 102.576C329.99 102.576 331.847 100.93 333.64 101.942" stroke="black" stroke-width="1.5" stroke-linecap="round" stroke-linejoin="round"/>
<path d="M381.997 197.501C379.816 198.263 377.581 198.299 375.51 197.75C375.49 203.078 375.471 206.654 375.471 206.654L317.993 206.524L318.461 194.837L316.222 200.595C314.035 205.156 309.491 207.53 305.051 206.897L258.6 199.512L261.861 180.901L298.482 181.135L313.352 141.994C314.151 139.892 315.29 137.945 316.802 136.372C318.963 134.124 321.702 132.604 324.515 132.267C324.515 132.267 325.804 132.184 326.281 132.215L337.08 132.065C337.07 133.319 337.366 140.383 345.167 139.979C352.438 139.6 353.555 133.728 353.726 131.832L366.377 131.655C370.727 131.604 374.655 132.993 376.933 135.434C379.1 137.755 380.413 141.399 381.377 144.648L389.569 180.787L389.689 181.196C391.713 188.006 388.266 195.303 381.998 197.501L381.997 197.501Z" fill="#FDFDFF" stroke="black" stroke-width="1.5" stroke-linecap="round" stroke-linejoin="round"/>
<path d="M261.47 183.143C261.47 183.143 253.786 181.735 251.645 180.536C250.677 179.994 248.855 177.542 248.058 176.494C247.261 175.446 245.82 174.974 245.868 176.106C245.877 176.302 246.032 176.732 246.253 177.25C246.158 177.124 246.072 177.002 246.001 176.89C244.126 173.92 242.483 173.934 242.523 175.149C242.53 175.363 242.681 175.804 242.919 176.364C241.848 175.028 240.743 174.119 239.904 174.947C239.549 175.298 240.093 176.6 240.886 178.143C240.718 177.981 240.548 177.84 240.378 177.73C239.843 177.38 239.235 177.527 239.23 177.964C239.216 179.476 241.401 184.49 245.105 188.043C245.728 188.641 247.084 189.586 248.717 190.642C247.488 190.867 246.231 191.332 245.905 192.29C245.414 193.731 246.735 193.86 249.897 193.496C250.785 193.394 252.316 193.538 253.703 193.721C256.641 195.477 259.019 196.913 259.019 196.913L261.468 183.143H261.47Z" fill="#FFFDFD"/>
<path d="M253.865 193.596C253.865 193.596 251.813 193.275 249.898 193.496C246.736 193.86 245.415 193.731 245.906 192.29C246.592 190.276 251.393 190.436 251.393 190.436" stroke="black" stroke-width="1.5" stroke-linecap="round" stroke-linejoin="round"/>
<path d="M259.021 196.913C259.021 196.913 247.359 190.203 245.106 188.042C241.401 184.49 238.806 179.297 239.231 177.964C239.397 177.441 239.844 177.38 240.379 177.729C240.514 177.817 240.649 177.924 240.783 178.046" fill="white"/>
<path d="M259.021 196.913C259.021 196.913 247.359 190.203 245.106 188.042C241.401 184.49 238.806 179.297 239.231 177.964C239.397 177.441 239.844 177.38 240.379 177.729C240.514 177.817 240.649 177.924 240.783 178.046" stroke="black" stroke-width="1.5" stroke-linecap="round" stroke-linejoin="round"/>
<path d="M247.828 187.171C247.828 187.171 246.808 186.443 246.154 185.956C244.95 185.061 243.58 183.129 242.482 181.103C241.105 178.562 239.23 175.678 239.904 174.946C240.747 174.031 241.785 174.902 242.918 176.364" stroke="black" stroke-width="1.5" stroke-linecap="round" stroke-linejoin="round"/>
<path d="M249.246 184.987C249.246 184.987 247.422 183.664 246.703 182.894C245.38 181.477 242.554 176.11 242.522 175.149C242.482 173.934 244.126 173.921 246.001 176.89C246.072 177.002 246.156 177.123 246.251 177.251" stroke="black" stroke-width="1.5" stroke-linecap="round" stroke-linejoin="round"/>
<path d="M250.658 182.993C250.658 182.993 248.238 181.18 247.777 180.36C247.316 179.539 245.894 176.713 245.869 176.106C245.82 174.974 247.261 175.446 248.058 176.494C248.856 177.542 250.678 179.994 251.646 180.536C253.786 181.735 261.47 183.143 261.47 183.143L259.021 196.913" stroke="black" stroke-width="1.5" stroke-linecap="round" stroke-linejoin="round"/>
<path d="M318.459 194.836L319.82 160.601" stroke="black" stroke-width="1.5" stroke-linecap="round" stroke-linejoin="round"/>
<path d="M307.541 158.495C310.146 158.364 312.036 158.368 314.247 158.556C313.841 159.142 313.381 159.831 313.02 160.449C312.845 160.749 312.751 161.357 312.707 162.025C311.711 161.856 311.04 161.986 310.517 162.689C309.956 163.442 311.063 164.245 312.816 165.147C313.135 166.804 313.892 166.849 314.433 165.936C314.844 166.129 315.268 166.327 315.699 166.53C317.51 167.382 328.483 175.244 328.483 175.244L340.908 163.368C337.814 162.082 322.854 155.908 319.446 155.419C313.186 154.522 308.683 155.969 307.1 156.848C306.356 157.261 306.82 158.532 307.541 158.495Z" fill="#FFFDFD"/>
<path d="M312.756 165.117C311.036 164.227 309.962 163.434 310.516 162.689C311.033 161.996 311.691 161.859 312.664 162.017" stroke="black" stroke-width="1.5" stroke-linecap="round" stroke-linejoin="round"/>
<path d="M314.148 158.545C311.977 158.365 310.109 158.366 307.541 158.495C306.82 158.532 306.356 157.261 307.1 156.848C308.683 155.969 313.186 154.522 319.445 155.419C322.854 155.908 337.814 162.082 340.908 163.368L328.482 175.244C328.482 175.244 317.509 167.382 315.699 166.53C315.285 166.336 314.877 166.146 314.483 165.96" stroke="black" stroke-width="1.5" stroke-linecap="round" stroke-linejoin="round"/>
<path d="M315.234 157.182C315.234 157.182 313.862 159.011 313.019 160.449C312.577 161.204 312.651 163.917 312.735 164.634C313.023 167.093 314.089 166.938 314.664 165.454C315.204 164.06 315.023 162.82 315.68 161.593" stroke="black" stroke-width="1.5" stroke-linecap="round" stroke-linejoin="round"/>
<path d="M317.906 157.541C317.906 157.541 316.466 159.796 315.767 161.348C315.406 162.152 315.631 164.62 315.863 165.297C316.219 166.337 316.596 166.753 317.233 166.356C318.144 165.789 317.582 163.458 318.239 162.231C318.853 161.087 320.793 158.169 320.793 158.169" stroke="black" stroke-width="1.5" stroke-linecap="round" stroke-linejoin="round"/>
<path d="M319.214 160.696C318.522 163.021 319.121 163.957 319.39 164.48C319.85 165.368 320.526 165.256 320.794 164.536C321.15 163.578 321.372 161.843 321.675 161.367C322.302 160.379 323.623 159.053 323.623 159.053" stroke="black" stroke-width="1.5" stroke-linecap="round" stroke-linejoin="round"/>
<path d="M375.506 197.758C375.077 197.644 374.655 197.504 374.242 197.341L327.073 177.209L333.187 156.885L364.464 168.027L375.473 171.838" fill="#FDFDFF"/>
<path d="M375.506 197.758C375.077 197.644 374.655 197.504 374.242 197.341L327.073 177.209L333.187 156.885L364.464 168.027L375.473 171.838" stroke="black" stroke-width="1.5" stroke-linecap="round" stroke-linejoin="round"/>
<path d="M365.03 168.224L362.178 157.213" stroke="black" stroke-width="1.5" stroke-linecap="round" stroke-linejoin="round"/>
<path d="M381.997 197.501C379.816 198.263 375.51 197.75 375.51 197.75L375.736 206.654L317.993 206.524L318.461 194.837L316.222 200.595C314.035 205.156 309.491 207.53 305.051 206.897L258.352 199.41L261.574 180.899L298.482 181.135L313.352 141.994C314.151 139.892 315.29 137.945 316.802 136.372C318.963 134.124 321.702 132.604 324.515 132.267C324.515 132.267 325.804 132.184 326.281 132.215L337.08 132.065C337.07 133.319 337.366 140.383 345.167 139.979C352.438 139.6 353.555 133.728 353.726 131.832L366.377 131.655C370.727 131.604 374.655 132.993 376.933 135.434C379.1 137.755 380.413 141.399 381.377 144.648L389.569 180.787L389.689 181.196C391.713 188.006 388.266 195.303 381.998 197.501L381.997 197.501Z" fill="black"/>
<path d="M318.432 195.518L319.82 160.601" stroke="#FEFFFF" stroke-width="1.5" stroke-linecap="round" stroke-linejoin="round"/>
<path d="M261.47 183.143C261.47 183.143 253.786 181.735 251.645 180.536C250.677 179.994 248.855 177.542 248.058 176.494C247.261 175.446 245.82 174.974 245.868 176.106C245.877 176.302 246.032 176.732 246.253 177.25C246.158 177.124 246.072 177.002 246.001 176.89C244.126 173.92 242.483 173.934 242.523 175.149C242.53 175.363 242.681 175.804 242.919 176.364C241.848 175.028 240.743 174.119 239.904 174.947C239.549 175.298 240.093 176.6 240.886 178.143C240.718 177.981 240.548 177.84 240.378 177.73C239.843 177.38 239.235 177.527 239.23 177.964C239.216 179.476 241.401 184.49 245.105 188.043C245.728 188.641 247.084 189.586 248.717 190.642C247.488 190.867 246.231 191.332 245.905 192.29C245.414 193.731 246.735 193.86 249.897 193.496C250.785 193.394 252.316 193.538 253.703 193.721C256.641 195.477 259.169 196.913 259.169 196.913L261.468 183.143H261.47Z" fill="#FFFDFD"/>
<path d="M253.865 193.596C253.865 193.596 251.813 193.275 249.898 193.496C246.736 193.86 245.415 193.731 245.906 192.29C246.592 190.276 251.393 190.436 251.393 190.436" stroke="black" stroke-width="1.5" stroke-linecap="round" stroke-linejoin="round"/>
<path d="M259.021 196.913C259.021 196.913 247.359 190.203 245.106 188.042C241.401 184.49 238.806 179.297 239.231 177.964C239.397 177.441 239.844 177.38 240.379 177.729C240.514 177.817 240.649 177.924 240.783 178.046" fill="white"/>
<path d="M259.021 196.913C259.021 196.913 247.359 190.203 245.106 188.042C241.401 184.49 238.806 179.297 239.231 177.964C239.397 177.441 239.844 177.38 240.379 177.729C240.514 177.817 240.649 177.924 240.783 178.046" stroke="black" stroke-width="1.5" stroke-linecap="round" stroke-linejoin="round"/>
<path d="M247.828 187.171C247.828 187.171 246.808 186.443 246.154 185.956C244.95 185.061 243.58 183.129 242.482 181.103C241.105 178.562 239.23 175.678 239.904 174.946C240.747 174.031 241.785 174.902 242.918 176.364" stroke="black" stroke-width="1.5" stroke-linecap="round" stroke-linejoin="round"/>
<path d="M249.246 184.987C249.246 184.987 247.422 183.664 246.703 182.894C245.38 181.477 242.554 176.11 242.522 175.149C242.482 173.934 244.126 173.921 246.001 176.89C246.072 177.002 246.156 177.123 246.251 177.251" stroke="black" stroke-width="1.5" stroke-linecap="round" stroke-linejoin="round"/>
<path d="M250.658 182.993C250.658 182.993 248.238 181.18 247.777 180.36C247.316 179.539 245.894 176.713 245.869 176.106C245.82 174.974 247.261 175.446 248.058 176.494C248.856 177.542 250.678 179.994 251.646 180.536C253.786 181.735 261.47 183.143 261.47 183.143L259.021 196.913" stroke="black" stroke-width="1.5" stroke-linecap="round" stroke-linejoin="round"/>
<path d="M307.541 158.495C310.146 158.364 312.036 158.368 314.247 158.556C313.841 159.142 313.381 159.831 313.02 160.449C312.845 160.749 312.751 161.357 312.707 162.025C311.711 161.856 311.04 161.986 310.517 162.689C309.956 163.442 311.063 164.245 312.816 165.147C313.135 166.804 313.892 166.849 314.433 165.936C314.844 166.129 315.268 166.327 315.699 166.53C317.51 167.382 328.483 175.244 328.483 175.244L340.908 163.368C337.814 162.082 322.854 155.908 319.446 155.419C313.186 154.522 308.683 155.969 307.1 156.848C306.356 157.261 306.82 158.532 307.541 158.495Z" fill="#FFFDFD"/>
<path d="M312.756 165.117C311.036 164.227 309.962 163.434 310.516 162.689C311.033 161.996 311.691 161.859 312.664 162.017" stroke="black" stroke-width="1.5" stroke-linecap="round" stroke-linejoin="round"/>
<path d="M314.148 158.545C311.977 158.365 310.109 158.366 307.541 158.495C306.82 158.532 306.356 157.261 307.1 156.848C308.683 155.969 313.186 154.522 319.445 155.419C322.854 155.908 337.814 162.082 340.908 163.368L328.482 175.244C328.482 175.244 317.509 167.382 315.699 166.53C315.285 166.336 314.877 166.146 314.483 165.96" stroke="black" stroke-width="1.5" stroke-linecap="round" stroke-linejoin="round"/>
<path d="M315.234 157.182C315.234 157.182 313.862 159.011 313.019 160.449C312.577 161.204 312.651 163.917 312.735 164.634C313.023 167.093 314.089 166.938 314.664 165.454C315.204 164.06 315.023 162.82 315.68 161.593" stroke="black" stroke-width="1.5" stroke-linecap="round" stroke-linejoin="round"/>
<path d="M317.906 157.541C317.906 157.541 316.466 159.796 315.767 161.348C315.406 162.152 315.631 164.62 315.863 165.297C316.219 166.337 316.596 166.753 317.233 166.356C318.144 165.789 317.582 163.458 318.239 162.231C318.853 161.087 320.793 158.169 320.793 158.169" stroke="black" stroke-width="1.5" stroke-linecap="round" stroke-linejoin="round"/>
<path d="M319.214 160.696C318.522 163.021 319.121 163.957 319.39 164.48C319.85 165.368 320.526 165.256 320.794 164.536C321.15 163.578 321.372 161.843 321.675 161.367C322.302 160.379 323.623 159.053 323.623 159.053" stroke="black" stroke-width="1.5" stroke-linecap="round" stroke-linejoin="round"/>
<path d="M375.506 197.758C375.077 197.644 374.655 197.504 374.242 197.341L327.073 177.209L333.187 156.885L364.464 168.027L375.473 171.838" fill="black"/>
<path d="M375.506 197.758C375.077 197.644 374.655 197.504 374.242 197.341L327.073 177.209L333.187 156.885L364.464 168.027L375.473 171.838" stroke="#FEFFFF" stroke-width="1.5" stroke-linecap="round" stroke-linejoin="round"/>
<path d="M365.03 168.224L362.178 157.213" stroke="#FEFFFF" stroke-width="1.5" stroke-linecap="round" stroke-linejoin="round"/>
<path d="M381.997 197.501C379.816 198.263 377.581 198.299 375.51 197.75C375.49 203.078 375.471 206.654 375.471 206.654L317.993 206.524L318.461 194.837L316.222 200.595C314.035 205.156 309.491 207.53 305.051 206.897L258.6 199.512L261.861 180.901L298.482 181.135L313.352 141.994C314.151 139.892 315.29 137.945 316.802 136.372C318.963 134.124 321.702 132.604 324.515 132.267C324.515 132.267 325.804 132.184 326.281 132.215L337.08 132.065C337.07 133.319 337.366 140.383 345.167 139.979C352.438 139.6 353.555 133.728 353.726 131.832L366.377 131.655C370.727 131.604 374.655 132.993 376.933 135.434C379.1 137.755 380.413 141.399 381.377 144.648L389.569 180.787L389.689 181.196C391.713 188.006 388.266 195.303 381.998 197.501L381.997 197.501Z" fill="#FDFDFF" stroke="black" stroke-width="1.5" stroke-linecap="round" stroke-linejoin="round"/>
<path d="M343.859 139.974L343.811 206.583" stroke="black" stroke-width="1.5" stroke-linecap="round" stroke-linejoin="round"/>
<path d="M343.877 139.995C343.877 139.995 341.486 146.053 337.094 142.757C331.99 138.927 337.079 132.065 337.079 132.065C337.07 133.247 337.332 139.57 343.858 139.974L343.877 139.995Z" fill="#7B5FF1" stroke="black" stroke-width="1.5" stroke-linecap="round" stroke-linejoin="round"/>
<path d="M350.547 144.068C345.176 145.913 343.877 139.995 343.877 139.995L343.901 139.974C344.297 140 344.722 140 345.166 139.979C352.251 139.606 353.497 134.024 353.716 131.988L353.798 131.92C355.416 133.698 355.917 142.229 350.547 144.068Z" fill="#7B5FF1" stroke="black" stroke-width="1.5" stroke-linecap="round" stroke-linejoin="round"/>
<path d="M261.47 183.143C261.47 183.143 253.786 181.735 251.645 180.536C250.677 179.994 248.855 177.542 248.058 176.494C247.261 175.446 245.82 174.974 245.868 176.106C245.877 176.302 246.032 176.732 246.253 177.25C246.158 177.124 246.072 177.002 246.001 176.89C244.126 173.92 242.483 173.934 242.523 175.149C242.53 175.363 242.681 175.804 242.919 176.364C241.848 175.028 240.743 174.119 239.904 174.947C239.549 175.298 240.093 176.6 240.886 178.143C240.718 177.981 240.548 177.84 240.378 177.73C239.843 177.38 239.235 177.527 239.23 177.964C239.216 179.476 241.401 184.49 245.105 188.043C245.728 188.641 247.084 189.586 248.717 190.642C247.488 190.867 246.231 191.332 245.905 192.29C245.414 193.731 246.735 193.86 249.897 193.496C250.785 193.394 252.316 193.538 253.703 193.721C256.641 195.477 259.019 196.913 259.019 196.913L261.468 183.143H261.47Z" fill="#FFFDFD"/>
<path d="M253.865 193.596C253.865 193.596 251.813 193.275 249.898 193.496C246.736 193.86 245.415 193.731 245.906 192.29C246.592 190.276 251.393 190.436 251.393 190.436" stroke="black" stroke-width="1.5" stroke-linecap="round" stroke-linejoin="round"/>
<path d="M259.021 196.913C259.021 196.913 247.359 190.203 245.106 188.042C241.401 184.49 238.806 179.297 239.231 177.964C239.397 177.441 239.844 177.38 240.379 177.729C240.514 177.817 240.649 177.924 240.783 178.046" fill="white"/>
<path d="M259.021 196.913C259.021 196.913 247.359 190.203 245.106 188.042C241.401 184.49 238.806 179.297 239.231 177.964C239.397 177.441 239.844 177.38 240.379 177.729C240.514 177.817 240.649 177.924 240.783 178.046" stroke="black" stroke-width="1.5" stroke-linecap="round" stroke-linejoin="round"/>
<path d="M247.828 187.171C247.828 187.171 246.808 186.443 246.154 185.956C244.95 185.061 243.58 183.129 242.482 181.103C241.105 178.562 239.23 175.678 239.904 174.946C240.747 174.031 241.785 174.902 242.918 176.364" stroke="black" stroke-width="1.5" stroke-linecap="round" stroke-linejoin="round"/>
<path d="M249.246 184.987C249.246 184.987 247.422 183.664 246.703 182.894C245.38 181.477 242.554 176.11 242.522 175.149C242.482 173.934 244.126 173.921 246.001 176.89C246.072 177.002 246.156 177.123 246.251 177.251" stroke="black" stroke-width="1.5" stroke-linecap="round" stroke-linejoin="round"/>
<path d="M250.658 182.993C250.658 182.993 248.238 181.18 247.777 180.36C247.316 179.539 245.894 176.713 245.869 176.106C245.82 174.974 247.261 175.446 248.058 176.494C248.856 177.542 250.678 179.994 251.646 180.536C253.786 181.735 261.47 183.143 261.47 183.143L259.021 196.913" stroke="black" stroke-width="1.5" stroke-linecap="round" stroke-linejoin="round"/>
<path d="M318.459 194.836L319.82 160.601" stroke="black" stroke-width="1.5" stroke-linecap="round" stroke-linejoin="round"/>
<path d="M307.541 158.495C310.146 158.364 312.036 158.368 314.247 158.556C313.841 159.142 313.381 159.831 313.02 160.449C312.845 160.749 312.751 161.357 312.707 162.025C311.711 161.856 311.04 161.986 310.517 162.689C309.956 163.442 311.063 164.245 312.816 165.147C313.135 166.804 313.892 166.849 314.433 165.936C314.844 166.129 315.268 166.327 315.699 166.53C317.51 167.382 328.483 175.244 328.483 175.244L340.908 163.368C337.814 162.082 322.854 155.908 319.446 155.419C313.186 154.522 308.683 155.969 307.1 156.848C306.356 157.261 306.82 158.532 307.541 158.495Z" fill="#FFFDFD"/>
<path d="M312.756 165.117C311.036 164.227 309.962 163.434 310.516 162.689C311.033 161.996 311.691 161.859 312.664 162.017" stroke="black" stroke-width="1.5" stroke-linecap="round" stroke-linejoin="round"/>
<path d="M314.148 158.545C311.977 158.365 310.109 158.366 307.541 158.495C306.82 158.532 306.356 157.261 307.1 156.848C308.683 155.969 313.186 154.522 319.445 155.419C322.854 155.908 337.814 162.082 340.908 163.368L328.482 175.244C328.482 175.244 317.509 167.382 315.699 166.53C315.285 166.336 314.877 166.146 314.483 165.96" stroke="black" stroke-width="1.5" stroke-linecap="round" stroke-linejoin="round"/>
<path d="M315.234 157.182C315.234 157.182 313.862 159.011 313.019 160.449C312.577 161.204 312.651 163.917 312.735 164.634C313.023 167.093 314.089 166.938 314.664 165.454C315.204 164.06 315.023 162.82 315.68 161.593" stroke="black" stroke-width="1.5" stroke-linecap="round" stroke-linejoin="round"/>
<path d="M317.906 157.541C317.906 157.541 316.466 159.796 315.767 161.348C315.406 162.152 315.631 164.62 315.863 165.297C316.219 166.337 316.596 166.753 317.233 166.356C318.144 165.789 317.582 163.458 318.239 162.231C318.853 161.087 320.793 158.169 320.793 158.169" stroke="black" stroke-width="1.5" stroke-linecap="round" stroke-linejoin="round"/>
<path d="M319.214 160.696C318.522 163.021 319.121 163.957 319.39 164.48C319.85 165.368 320.526 165.256 320.794 164.536C321.15 163.578 321.372 161.843 321.675 161.367C322.302 160.379 323.623 159.053 323.623 159.053" stroke="black" stroke-width="1.5" stroke-linecap="round" stroke-linejoin="round"/>
<path d="M375.506 197.758C375.077 197.644 374.655 197.504 374.242 197.341L327.073 177.209L333.187 156.885L364.464 168.027L375.473 171.838" fill="#FDFDFF"/>
<path d="M375.506 197.758C375.077 197.644 374.655 197.504 374.242 197.341L327.073 177.209L333.187 156.885L364.464 168.027L375.473 171.838" stroke="black" stroke-width="1.5" stroke-linecap="round" stroke-linejoin="round"/>
<path d="M365.03 168.224L362.178 157.213" stroke="black" stroke-width="1.5" stroke-linecap="round" stroke-linejoin="round"/>
<path d="M389.613 180.941L389.568 180.789L381.376 144.647C380.411 141.397 379.098 137.754 376.932 135.431C374.656 132.99 370.726 131.606 366.378 131.656L353.14 131.841L344.546 136.828L337.078 132.066L326.281 132.217C325.803 132.187 324.513 132.269 324.513 132.269C321.702 132.607 318.964 134.126 316.804 136.372C315.291 137.945 314.152 139.892 313.353 141.994L298.481 181.132L261.862 180.901L258.602 199.512L305.052 206.897C309.49 207.528 314.036 205.154 316.223 200.594L318.458 194.836L317.994 206.526L375.473 206.656C375.473 206.656 375.489 203.076 375.509 197.748C377.934 198.392 380.581 198.235 383.1 197.049C388.769 194.378 391.51 187.326 389.613 180.941Z" fill="#FDFDFF" stroke="black" stroke-width="1.5" stroke-linecap="round" stroke-linejoin="round"/>
<path d="M344.546 136.827L344.351 155.311" stroke="black" stroke-width="1.5" stroke-linecap="round" stroke-linejoin="round"/>
<path d="M353.999 128.024L356.329 131.664L349.571 143.55L344.546 136.827L353.999 128.024Z" fill="#FDFDFF" stroke="black" stroke-width="1.5" stroke-linecap="round" stroke-linejoin="round"/>
<path d="M344.546 136.827L339.212 142.94L334.446 132.07L336.821 128.671L344.546 136.827Z" fill="#FDFDFF" stroke="black" stroke-width="1.5" stroke-linecap="round" stroke-linejoin="round"/>
<path d="M261.47 183.143C261.47 183.143 253.786 181.735 251.645 180.536C250.677 179.994 248.855 177.542 248.058 176.494C247.261 175.446 245.82 174.974 245.868 176.106C245.877 176.302 246.032 176.732 246.253 177.25C246.158 177.124 246.072 177.002 246.001 176.89C244.126 173.92 242.483 173.934 242.523 175.149C242.53 175.363 242.681 175.804 242.919 176.364C241.848 175.028 240.743 174.119 239.904 174.947C239.549 175.298 240.093 176.6 240.886 178.143C240.718 177.981 240.548 177.84 240.378 177.73C239.843 177.38 239.235 177.527 239.23 177.964C239.216 179.476 241.401 184.49 245.105 188.043C245.728 188.641 247.084 189.586 248.717 190.642C247.488 190.867 246.231 191.332 245.905 192.29C245.414 193.731 246.735 193.86 249.897 193.496C250.785 193.394 252.316 193.538 253.703 193.721C256.641 195.477 259.044 196.777 259.044 196.777L261.468 183.143L261.47 183.143Z" fill="#FFFDFD"/>
<path d="M253.865 193.596C253.865 193.596 251.813 193.275 249.898 193.496C246.736 193.86 245.415 193.731 245.906 192.29C246.592 190.276 251.393 190.436 251.393 190.436" stroke="black" stroke-width="1.5" stroke-linecap="round" stroke-linejoin="round"/>
<path d="M259.021 196.913C259.021 196.913 247.359 190.203 245.106 188.042C241.401 184.49 238.806 179.297 239.231 177.964C239.397 177.441 239.844 177.38 240.379 177.729C240.514 177.817 240.649 177.924 240.783 178.046" fill="white"/>
<path d="M259.021 196.913C259.021 196.913 247.359 190.203 245.106 188.042C241.401 184.49 238.806 179.297 239.231 177.964C239.397 177.441 239.844 177.38 240.379 177.729C240.514 177.817 240.649 177.924 240.783 178.046" stroke="black" stroke-width="1.5" stroke-linecap="round" stroke-linejoin="round"/>
<path d="M247.828 187.171C247.828 187.171 246.808 186.443 246.154 185.956C244.95 185.061 243.58 183.129 242.482 181.103C241.105 178.562 239.23 175.678 239.904 174.946C240.747 174.031 241.785 174.902 242.918 176.364" stroke="black" stroke-width="1.5" stroke-linecap="round" stroke-linejoin="round"/>
<path d="M249.246 184.987C249.246 184.987 247.422 183.664 246.703 182.894C245.38 181.477 242.554 176.11 242.522 175.149C242.482 173.934 244.126 173.921 246.001 176.89C246.072 177.002 246.156 177.123 246.251 177.251" stroke="black" stroke-width="1.5" stroke-linecap="round" stroke-linejoin="round"/>
<path d="M250.658 182.993C250.658 182.993 248.238 181.18 247.777 180.36C247.316 179.539 245.894 176.713 245.869 176.106C245.82 174.974 247.261 175.446 248.058 176.494C248.856 177.542 250.678 179.994 251.646 180.536C253.786 181.735 261.47 183.143 261.47 183.143L259.021 196.913" stroke="black" stroke-width="1.5" stroke-linecap="round" stroke-linejoin="round"/>
<path d="M318.459 194.836L319.82 160.601" stroke="black" stroke-width="1.5" stroke-linecap="round" stroke-linejoin="round"/>
<path d="M307.541 158.495C310.146 158.364 312.036 158.368 314.247 158.556C313.841 159.142 313.381 159.831 313.02 160.449C312.845 160.749 312.751 161.357 312.707 162.025C311.711 161.856 311.04 161.986 310.517 162.689C309.956 163.442 311.063 164.245 312.816 165.147C313.135 166.804 313.892 166.849 314.433 165.936C314.844 166.129 315.268 166.327 315.699 166.53C317.51 167.382 328.483 175.244 328.483 175.244L340.908 163.368C337.814 162.082 322.854 155.908 319.446 155.419C313.186 154.522 308.683 155.969 307.1 156.848C306.356 157.261 306.82 158.532 307.541 158.495Z" fill="#FFFDFD"/>
<path d="M312.756 165.117C311.036 164.227 309.962 163.434 310.516 162.689C311.033 161.996 311.691 161.859 312.664 162.017" stroke="black" stroke-width="1.5" stroke-linecap="round" stroke-linejoin="round"/>
<path d="M314.148 158.545C311.977 158.365 310.109 158.366 307.541 158.495C306.82 158.532 306.356 157.261 307.1 156.848C308.683 155.969 313.186 154.522 319.445 155.419C322.854 155.908 337.814 162.082 340.908 163.368L328.482 175.244C328.482 175.244 317.509 167.382 315.699 166.53C315.285 166.336 314.877 166.146 314.483 165.96" stroke="black" stroke-width="1.5" stroke-linecap="round" stroke-linejoin="round"/>
<path d="M315.234 157.182C315.234 157.182 313.862 159.011 313.019 160.449C312.577 161.204 312.651 163.917 312.735 164.634C313.023 167.093 314.089 166.938 314.664 165.454C315.204 164.06 315.023 162.82 315.68 161.593" stroke="black" stroke-width="1.5" stroke-linecap="round" stroke-linejoin="round"/>
<path d="M317.906 157.541C317.906 157.541 316.466 159.796 315.767 161.348C315.406 162.152 315.631 164.62 315.863 165.297C316.219 166.337 316.596 166.753 317.233 166.356C318.144 165.789 317.582 163.458 318.239 162.231C318.853 161.087 320.793 158.169 320.793 158.169" stroke="black" stroke-width="1.5" stroke-linecap="round" stroke-linejoin="round"/>
<path d="M319.214 160.696C318.522 163.021 319.121 163.957 319.39 164.48C319.85 165.368 320.526 165.256 320.794 164.536C321.15 163.578 321.372 161.843 321.675 161.367C322.302 160.379 323.623 159.053 323.623 159.053" stroke="black" stroke-width="1.5" stroke-linecap="round" stroke-linejoin="round"/>
<path d="M375.506 197.758C375.077 197.644 374.655 197.504 374.242 197.341L327.073 177.209L333.187 156.885L364.464 168.027L375.473 171.838" fill="#FDFDFF"/>
<path d="M375.506 197.758C375.077 197.644 374.655 197.504 374.242 197.341L327.073 177.209L333.187 156.885L364.464 168.027L375.473 171.838" stroke="black" stroke-width="1.5" stroke-linecap="round" stroke-linejoin="round"/>
<path d="M365.03 168.224L362.178 157.213" stroke="black" stroke-width="1.5" stroke-linecap="round" stroke-linejoin="round"/>
<path d="M381.997 197.501C379.816 198.263 375.51 197.75 375.51 197.75L375.747 206.798L317.993 206.524L318.461 194.837L316.222 200.595C314.035 205.156 309.491 207.53 305.051 206.897L258.352 199.41L261.574 180.899L298.482 181.135L313.352 141.994C314.151 139.892 315.29 137.945 316.802 136.372C318.963 134.124 321.702 132.604 324.515 132.267C324.515 132.267 325.804 132.184 326.281 132.215L337.08 132.065L344.546 136.827L353.726 131.832L366.377 131.655C370.727 131.604 374.655 132.993 376.933 135.434C379.1 137.755 380.413 141.399 381.377 144.648L389.569 180.787L389.689 181.196C391.713 188.006 388.266 195.303 381.998 197.501L381.997 197.501Z" fill="black"/>
<path d="M318.432 195.518L319.82 160.601" stroke="#FEFFFF" stroke-width="1.5" stroke-linecap="round" stroke-linejoin="round"/>
<path d="M238.821 181.941H300.388L290.481 132.299C290.263 131.207 289.374 130.428 288.344 130.428H231.252C229.858 130.428 228.819 131.825 229.115 133.305L238.821 181.941H238.821Z" fill="black" stroke="black" stroke-width="1.5" stroke-linecap="round" stroke-linejoin="round"/>
<path d="M238.979 181.941H294.971C296.708 181.941 298.002 180.2 297.633 178.357L288.442 132.299C288.224 131.207 287.334 130.428 286.305 130.428H228.717C227.578 130.428 226.729 131.57 226.97 132.78L236.316 179.61C236.588 180.971 237.697 181.941 238.979 181.941Z" fill="#7B5FF1" stroke="black" stroke-width="1.5" stroke-linecap="round" stroke-linejoin="round"/>
<path d="M237.119 181.941H323.431C324.242 181.941 324.899 181.228 324.899 180.349C324.899 179.469 324.242 178.756 323.431 178.756H237.119C236.309 178.756 235.652 179.469 235.652 180.349C235.652 181.228 236.309 181.941 237.119 181.941Z" fill="black" stroke="black" stroke-width="1.5" stroke-linecap="round" stroke-linejoin="round"/>
<path d="M237.119 181.941H323.431C324.242 181.941 324.899 181.228 324.899 180.349C324.899 179.469 324.242 178.756 323.431 178.756H237.119C236.309 178.756 235.652 179.469 235.652 180.349C235.652 181.228 236.309 181.941 237.119 181.941Z" stroke="#FEFFFF" stroke-width="1.5" stroke-linecap="round" stroke-linejoin="round"/>
<path d="M237.119 181.941H296.924C297.734 181.941 298.391 181.228 298.391 180.349C298.391 179.469 297.734 178.756 296.924 178.756H237.119C236.309 178.756 235.652 179.469 235.652 180.349C235.652 181.228 236.309 181.941 237.119 181.941Z" fill="#7B5FF1" stroke="black" stroke-width="1.5" stroke-linecap="round" stroke-linejoin="round"/>
<path d="M261.339 160.769C263.632 160.769 265.491 158.75 265.491 156.26C265.491 153.771 263.632 151.752 261.339 151.752C259.045 151.752 257.186 153.771 257.186 156.26C257.186 158.75 259.045 160.769 261.339 160.769Z" fill="white" stroke="black" stroke-width="1.5" stroke-linecap="round" stroke-linejoin="round"/>
<path d="M353.999 128.024L356.518 131.96L349.571 143.55L344.546 136.827L353.999 128.024Z" fill="#FDFDFF" stroke="black" stroke-width="1.5" stroke-linecap="round" stroke-linejoin="round"/>
<path d="M344.546 136.827L339.212 142.94L334.271 132.32L336.821 128.671L344.546 136.827Z" fill="#FDFDFF" stroke="black" stroke-width="1.5" stroke-linecap="round" stroke-linejoin="round"/>
<path d="M261.47 183.143C261.47 183.143 253.786 181.735 251.645 180.536C250.677 179.994 248.855 177.542 248.058 176.494C247.261 175.446 245.82 174.974 245.868 176.106C245.877 176.302 246.032 176.732 246.253 177.25C246.158 177.124 246.072 177.002 246.001 176.89C244.126 173.92 242.483 173.934 242.523 175.149C242.53 175.363 242.681 175.804 242.919 176.364C241.848 175.028 240.743 174.119 239.904 174.947C239.549 175.298 240.093 176.6 240.886 178.143C240.718 177.981 240.548 177.84 240.378 177.73C239.843 177.38 239.235 177.527 239.23 177.964C239.216 179.476 241.401 184.49 245.105 188.043C245.728 188.641 247.084 189.586 248.717 190.642C247.488 190.867 246.231 191.332 245.905 192.29C245.414 193.731 246.735 193.86 249.897 193.496C250.785 193.394 252.316 193.538 253.703 193.721C256.641 195.477 259.169 196.913 259.169 196.913L261.468 183.143H261.47Z" fill="#FFFDFD"/>
<path d="M253.865 193.596C253.865 193.596 251.813 193.275 249.898 193.496C246.736 193.86 245.415 193.731 245.906 192.29C246.592 190.276 251.393 190.436 251.393 190.436" stroke="black" stroke-width="1.5" stroke-linecap="round" stroke-linejoin="round"/>
<path d="M259.021 196.913C259.021 196.913 247.359 190.203 245.106 188.042C241.401 184.49 238.806 179.297 239.231 177.964C239.397 177.441 239.844 177.38 240.379 177.729C240.514 177.817 240.649 177.924 240.783 178.046" fill="white"/>
<path d="M259.021 196.913C259.021 196.913 247.359 190.203 245.106 188.042C241.401 184.49 238.806 179.297 239.231 177.964C239.397 177.441 239.844 177.38 240.379 177.729C240.514 177.817 240.649 177.924 240.783 178.046" stroke="black" stroke-width="1.5" stroke-linecap="round" stroke-linejoin="round"/>
<path d="M247.828 187.171C247.828 187.171 246.808 186.443 246.154 185.956C244.95 185.061 243.58 183.129 242.482 181.103C241.105 178.562 239.23 175.678 239.904 174.946C240.747 174.031 241.785 174.902 242.918 176.364" stroke="black" stroke-width="1.5" stroke-linecap="round" stroke-linejoin="round"/>
<path d="M249.246 184.987C249.246 184.987 247.422 183.664 246.703 182.894C245.38 181.477 242.554 176.11 242.522 175.149C242.482 173.934 244.126 173.921 246.001 176.89C246.072 177.002 246.156 177.123 246.251 177.251" stroke="black" stroke-width="1.5" stroke-linecap="round" stroke-linejoin="round"/>
<path d="M250.658 182.993C250.658 182.993 248.238 181.18 247.777 180.36C247.316 179.539 245.894 176.713 245.869 176.106C245.82 174.974 247.261 175.446 248.058 176.494C248.856 177.542 250.678 179.994 251.646 180.536C253.786 181.735 261.47 183.143 261.47 183.143L259.021 196.913" stroke="black" stroke-width="1.5" stroke-linecap="round" stroke-linejoin="round"/>
<path d="M307.541 158.495C310.146 158.364 312.036 158.368 314.247 158.556C313.841 159.142 313.381 159.831 313.02 160.449C312.845 160.749 312.751 161.357 312.707 162.025C311.711 161.856 311.04 161.986 310.517 162.689C309.956 163.442 311.063 164.245 312.816 165.147C313.135 166.804 313.892 166.849 314.433 165.936C314.844 166.129 315.268 166.327 315.699 166.53C317.51 167.382 328.483 175.244 328.483 175.244L340.908 163.368C337.814 162.082 322.854 155.908 319.446 155.419C313.186 154.522 308.683 155.969 307.1 156.848C306.356 157.261 306.82 158.532 307.541 158.495Z" fill="#FFFDFD"/>
<path d="M312.756 165.117C311.036 164.227 309.962 163.434 310.516 162.689C311.033 161.996 311.691 161.859 312.664 162.017" stroke="black" stroke-width="1.5" stroke-linecap="round" stroke-linejoin="round"/>
<path d="M314.148 158.545C311.977 158.365 310.109 158.366 307.541 158.495C306.82 158.532 306.356 157.261 307.1 156.848C308.683 155.969 313.186 154.522 319.445 155.419C322.854 155.908 337.814 162.082 340.908 163.368L328.482 175.244C328.482 175.244 317.509 167.382 315.699 166.53C315.285 166.336 314.877 166.146 314.483 165.96" stroke="black" stroke-width="1.5" stroke-linecap="round" stroke-linejoin="round"/>
<path d="M315.234 157.182C315.234 157.182 313.862 159.011 313.019 160.449C312.577 161.204 312.651 163.917 312.735 164.634C313.023 167.093 314.089 166.938 314.664 165.454C315.204 164.06 315.023 162.82 315.68 161.593" stroke="black" stroke-width="1.5" stroke-linecap="round" stroke-linejoin="round"/>
<path d="M317.906 157.541C317.906 157.541 316.466 159.796 315.767 161.348C315.406 162.152 315.631 164.62 315.863 165.297C316.219 166.337 316.596 166.753 317.233 166.356C318.144 165.789 317.582 163.458 318.239 162.231C318.853 161.087 320.793 158.169 320.793 158.169" stroke="black" stroke-width="1.5" stroke-linecap="round" stroke-linejoin="round"/>
<path d="M319.214 160.696C318.522 163.021 319.121 163.957 319.39 164.48C319.85 165.368 320.526 165.256 320.794 164.536C321.15 163.578 321.372 161.843 321.675 161.367C322.302 160.379 323.623 159.053 323.623 159.053" stroke="black" stroke-width="1.5" stroke-linecap="round" stroke-linejoin="round"/>
<path d="M375.506 197.758C375.077 197.644 374.655 197.504 374.242 197.341L327.073 177.209L333.187 156.885L364.464 168.027L375.473 171.838" fill="black"/>
<path d="M375.506 197.758C375.077 197.644 374.655 197.504 374.242 197.341L327.073 177.209L333.187 156.885L364.464 168.027L375.473 171.838" stroke="#FEFFFF" stroke-width="1.5" stroke-linecap="round" stroke-linejoin="round"/>
<path d="M365.03 168.224L362.178 157.213" stroke="#FEFFFF" stroke-width="1.5" stroke-linecap="round" stroke-linejoin="round"/>
<path d="M194.538 300.611H219.75L222.207 297.278C222.207 297.278 222.838 299.103 223.439 300.611H229.636L230.032 283.54L211.132 283.086C211.132 283.086 207.688 291.785 201.391 292.352C191.453 293.25 194.538 300.611 194.538 300.611Z" fill="white" stroke="black" stroke-width="1.5" stroke-linecap="round" stroke-linejoin="round"/>
<path d="M154.745 268.57L168.393 291.584L172.304 292.022C172.304 292.022 171.232 293.586 170.39 294.951L173.744 300.608L187.18 291.729L177.301 274.232C177.301 274.232 168.699 275.796 164.851 270.356C158.776 261.771 154.744 268.571 154.744 268.571L154.745 268.57Z" fill="white" stroke="black" stroke-width="1.5" stroke-linecap="round" stroke-linejoin="round"/>
<path d="M345.347 243.173C341.727 243.108 297.706 241.139 278.816 241.11L185.271 296.639L173.659 271.891L271.849 200.792C271.849 200.792 343.599 204.95 342.41 205.946" fill="#7B5FF1"/>
<path d="M345.347 243.173C341.727 243.108 297.706 241.139 278.816 241.11L185.271 296.639L173.659 271.891L271.849 200.792C271.849 200.792 343.599 204.95 342.41 205.946" stroke="black" stroke-width="1.5" stroke-linecap="round" stroke-linejoin="round"/>
<path d="M375.473 206.656L351.013 206.131L276.965 185.78C265.482 181.652 257.703 184.819 252.342 195.462L208.801 283.999L231.557 295.349L274.744 218.371L335.935 241.575C338.848 242.531 341.865 243.066 344.906 243.161C345.101 243.167 345.253 243.171 345.347 243.173C351.501 243.283 359.508 241.859 366.215 235.031C373.643 227.468 375.982 217.553 375.473 206.655V206.656Z" fill="#7B5FF1" stroke="black" stroke-width="1.5" stroke-linecap="round" stroke-linejoin="round"/>
<path d="M249.897 13.0416C251.55 13.0416 252.89 11.5869 252.89 9.79258C252.89 7.99821 251.55 6.54359 249.897 6.54359C248.244 6.54359 246.905 7.99821 246.905 9.79258C246.905 11.5869 248.244 13.0416 249.897 13.0416Z" fill="white" stroke="black" stroke-width="1.5" stroke-linecap="round" stroke-linejoin="round"/>
<path d="M258.73 13.0416C260.383 13.0416 261.723 11.5869 261.723 9.79258C261.723 7.99821 260.383 6.54359 258.73 6.54359C257.077 6.54359 255.737 7.99821 255.737 9.79258C255.737 11.5869 257.077 13.0416 258.73 13.0416Z" fill="white" stroke="black" stroke-width="1.5" stroke-linecap="round" stroke-linejoin="round"/>
<path d="M267.563 13.0416C269.216 13.0416 270.556 11.5869 270.556 9.79258C270.556 7.99821 269.216 6.54359 267.563 6.54359C265.91 6.54359 264.57 7.99821 264.57 9.79258C264.57 11.5869 265.91 13.0416 267.563 13.0416Z" fill="#7B5FF1" stroke="black" stroke-width="1.5" stroke-linecap="round" stroke-linejoin="round"/>
</g>
<defs>
<clipPath id="clip0_19_2">
<rect width="437" height="301" fill="white"/>
</clipPath>
</defs>
</svg>
