<svg width="456" height="402" viewBox="0 0 456 402" fill="none" xmlns="http://www.w3.org/2000/svg">
<mask id="mask0_25_1616" style="mask-type:luminance" maskUnits="userSpaceOnUse" x="0" y="0" width="456" height="402">
<path d="M455.607 0H0V401.933H455.607V0Z" fill="white"/>
</mask>
<g mask="url(#mask0_25_1616)">
<path d="M18.4136 230.022C14.4482 220.086 -5.17519 180.962 2.33983 170.279C4.94408 166.577 9.60163 167.216 13.2488 168.934C22.9582 173.51 30.6649 183.373 36.4937 194.344C42.3224 205.315 47.3393 218.574 51.4262 230.586C40.9493 230.586 40.655 230.022 18.4136 230.022Z" fill="#55D087" stroke="#010101" stroke-width="1.5" stroke-linecap="round" stroke-linejoin="round"/>
<path d="M7.01538 168.296C14.2986 189.111 25.3845 209.766 33.3804 230.145" stroke="#010101" stroke-width="1.5" stroke-linecap="round" stroke-linejoin="round"/>
<path d="M24.8628 177.545C22.0301 181.976 19.1974 186.406 16.3647 190.837" stroke="#010101" stroke-width="1.5" stroke-linecap="round" stroke-linejoin="round"/>
<path d="M24.0243 208.969C18.5224 207.694 13.035 206.314 7.5647 204.828" stroke="#010101" stroke-width="1.5" stroke-linecap="round" stroke-linejoin="round"/>
<path d="M47.6737 230.289C41.1845 209.255 38.5836 186.261 40.1458 163.725C40.4598 159.198 41.0236 154.427 43.2711 150.916C46.1628 146.398 51.3397 145.08 55.7542 146.521C60.1688 147.962 63.9135 151.722 67.0798 155.927C75.5248 167.143 80.6161 181.755 85.0888 196.26C88.5589 207.512 91.7594 218.9 94.8445 230.134C78.5653 230.884 62.2871 231.635 47.6737 230.289Z" fill="#55D087" stroke="#010101" stroke-width="1.5" stroke-linecap="round" stroke-linejoin="round"/>
<path d="M51.427 145.997C56.9589 176.031 64.1325 202.798 69.2504 230.586" stroke="#010101" stroke-width="1.5" stroke-linecap="round" stroke-linejoin="round"/>
<path d="M78.4585 176.326C73.4758 185.33 68.4761 194.32 63.4592 203.292" stroke="#010101" stroke-width="1.5" stroke-linecap="round" stroke-linejoin="round"/>
<path d="M59.446 185.428C53.3298 180.27 46.9843 175.562 40.4497 171.333" stroke="#010101" stroke-width="1.5" stroke-linecap="round" stroke-linejoin="round"/>
<path d="M65.5022 211.712C57.4602 205.028 49.194 198.789 40.7336 193.019" stroke="#010101" stroke-width="1.5" stroke-linecap="round" stroke-linejoin="round"/>
<path d="M349.973 79.0053L354.739 19.8037L190.698 19.062L188.443 80.2245L349.973 79.0053Z" fill="#E3E3FF" stroke="#010101" stroke-width="1.5" stroke-linecap="round" stroke-linejoin="round"/>
<path d="M451.715 182.801L454.966 117.435L334.279 117.379L331.571 183.548L451.715 182.801Z" fill="white" stroke="#010101" stroke-width="1.5" stroke-linecap="round" stroke-linejoin="round"/>
<path d="M355.285 356.11C359.454 358.964 370.307 362.823 370.307 362.823C370.307 362.823 382.921 356.03 391.535 351.642C392.412 351.196 393.318 352.172 392.939 353.15C386.812 369.042 381.017 385.481 374.88 401.225C365.333 398.573 353.689 391.297 344.142 388.644C342.52 388.193 347.911 367.416 355.285 356.11Z" fill="#010101" stroke="#010101" stroke-width="1.5" stroke-linecap="round" stroke-linejoin="round"/>
<path d="M348.26 401.199C355.818 385.002 362.558 368.342 368.44 351.32C354.668 345.508 341.671 339.91 329.25 333.049C323.777 310.551 319.49 287.48 315.203 264.409C312.979 252.444 310.674 240.236 305.098 229.683C299.523 219.13 289.994 210.334 278.945 209.519C270.591 208.904 262.54 212.815 255.143 217.143C239.934 226.047 225.766 237.112 213.102 249.981C184.743 265.588 155.572 279.882 125.705 293.873C131.862 305.862 142.025 314.851 153.076 321.275C164.126 327.7 176.141 331.793 188.033 336.009C242.222 355.223 295.451 377.732 348.261 401.2L348.26 401.199Z" fill="#7B5FF1" stroke="#010101" stroke-width="1.5" stroke-linecap="round" stroke-linejoin="round"/>
<path d="M276.847 312.388C273.228 296.682 270.22 282.653 267.834 266.662C253.902 273.571 241.334 281.721 228.477 293.37C236.057 296.577 261.857 306.047 276.847 312.388Z" fill="white" stroke="#010101" stroke-width="1.5" stroke-linecap="round" stroke-linejoin="round"/>
<path d="M276.491 311.909C294.648 320.024 313.046 327.481 331.646 334.264" stroke="#010101" stroke-width="1.5" stroke-linecap="round" stroke-linejoin="round"/>
<path d="M213.037 287.83C217.635 289.541 223.878 291.659 228.476 293.37" stroke="#010101" stroke-width="1.5" stroke-linecap="round" stroke-linejoin="round"/>
<path d="M146.691 90.5878C145.805 87.7908 144.908 84.9674 143.485 82.4544C142.062 79.9415 140.047 77.7305 137.52 76.7273C135.894 76.0819 134.134 75.962 132.407 76.0158C123.798 76.2819 108.021 82.0779 103.703 90.0953C102.75 91.8656 102.173 93.8586 101.814 95.8799C101.341 98.5448 101.235 101.288 101.503 103.987C102.11 110.095 104.229 116.005 106.9 121.398C108.038 123.696 110.33 125.411 112.481 126.517C114.151 127.377 116.075 127.311 117.916 127.229C119.32 127.167 120.765 127.093 122.037 126.439C123.833 125.514 125.006 123.58 125.966 121.667C129.145 115.327 130.997 108.201 134.668 102.193C137.931 96.8538 142.506 92.6252 146.692 90.5878H146.691Z" fill="#010101" stroke="#010101" stroke-width="1.5" stroke-linecap="round" stroke-linejoin="round"/>
<path d="M117.16 131.412C119.339 140.941 121.517 150.47 123.919 159.579C127.152 160.976 130.759 161.103 134.177 160.424C137.595 159.744 140.849 158.292 143.97 156.613C145.769 155.645 147.607 154.527 149.002 152.316C147.297 149.919 146.92 146.733 146.279 143.769C145.677 140.984 144.792 138.274 143.519 135.198C147.238 133.29 151.242 131.079 152.975 126.978C154.299 123.843 154.018 120.198 153.576 116.773C152.6 109.185 150.977 101.699 148.737 94.4455C148.128 92.4742 147.46 90.4887 146.341 88.8118C142.386 82.8828 138.01 84.0926 135.882 86.1677C134.651 87.369 133.14 88.2183 131.535 88.6118C129.142 89.1987 126.456 88.8326 124.416 90.3321C122.751 91.556 121.922 93.7528 121.385 95.878C119.66 102.692 120.012 110.002 121.576 116.863C121.874 118.174 122.171 119.721 121.373 120.747C120.363 122.045 118.802 122.379 117.639 121.248C116.477 120.118 115.204 117.623 113.809 116.877C111.681 115.741 108.946 117.097 107.771 119.36C106.595 121.623 106.725 124.473 107.479 126.944C108.17 129.21 109.477 131.404 111.479 132.316C113.482 133.227 116.206 132.36 117.16 131.412Z" fill="white" stroke="#010101" stroke-width="1.5" stroke-linecap="round" stroke-linejoin="round"/>
<path d="M133.217 135.633C135.137 135.532 137.058 135.762 138.979 135.776C140.901 135.79 142.873 135.573 144.598 134.641" stroke="#010101" stroke-width="1.5" stroke-linecap="round" stroke-linejoin="round"/>
<path d="M142.115 102.093C143.552 105.46 144.999 108.848 146.957 111.88C147.03 111.993 147.107 112.117 147.103 112.257C147.099 112.401 147.01 112.521 146.923 112.628C145.788 114.009 144.175 114.9 142.493 115.074" stroke="#010101" stroke-width="1.5" stroke-linecap="round" stroke-linejoin="round"/>
<path d="M294.55 110.125C298.919 100.943 302.656 93.3263 307.025 84.1436C307.696 82.7337 309.365 80.0726 310.857 81.2088C311.919 82.0175 311.664 86.3659 307.758 93.1782C311.514 85.845 313.361 82.6403 317.118 75.3081C317.592 74.3814 318.225 73.3405 319.113 73.3424C320.021 73.3443 320.661 74.5437 320.64 75.6553C320.618 76.767 320.13 77.7842 319.657 78.743C316.94 84.2436 317.177 84.8872 314.46 90.3878C318.616 92.88 323.903 98.3985 322.197 101.143C315.666 111.648 317.094 107.907 310.563 118.412" fill="white"/>
<path d="M294.55 110.125C298.919 100.943 302.656 93.3263 307.025 84.1436C307.696 82.7337 309.365 80.0726 310.857 81.2088C311.919 82.0175 311.664 86.3659 307.758 93.1782C311.514 85.845 313.361 82.6403 317.118 75.3081C317.592 74.3814 318.225 73.3405 319.113 73.3424C320.021 73.3443 320.661 74.5437 320.64 75.6553C320.618 76.767 320.13 77.7842 319.657 78.743C316.94 84.2436 317.177 84.8872 314.46 90.3878C318.616 92.88 323.903 98.3985 322.197 101.143C315.666 111.648 317.094 107.907 310.563 118.412" stroke="#010101" stroke-width="1.5" stroke-linecap="round" stroke-linejoin="round"/>
<path d="M307.757 93.1781C309.069 94.6313 310.276 96.2356 311.066 98.0917C311.855 99.9479 312.204 102.084 311.764 104.076" stroke="#010101" stroke-width="1.5" stroke-linecap="round" stroke-linejoin="round"/>
<path d="M122.739 157.629C108.768 161.507 93.6656 166.191 85.1009 178.969C81.2792 184.671 79.1369 191.513 77.3839 198.336C72.9223 215.699 70.6209 233.735 70.5636 251.78C70.532 261.798 71.6587 272.935 78.4765 279.554C84.0854 284.999 92.3926 285.94 99.6552 284.005C106.918 282.071 113.402 277.653 120.109 273.346C122.1 280.045 124.091 286.744 125.835 293.869C144.682 285.029 163.529 276.189 182.377 267.35C192.497 262.603 202.652 257.838 212.213 251.084C204.755 228.538 197.06 206.088 188.947 184.508C215.621 194.098 250.357 198.219 262.903 188.746C266.772 185.825 271.327 180.7 274.521 176.915C289.264 159.441 306.198 138.033 317.702 117.831C309.823 112.663 301.976 108.652 291.978 102.094C279.694 119.211 265.124 139.669 249.85 155.502C228.537 151.186 208.373 146.594 186.876 143.582C181.334 142.805 175.732 142.071 170.173 142.683C163.185 143.451 156.756 144.806 150.229 147.14C149.055 147.56 138.105 155.026 137.469 155.202C136.155 155.566 127.329 156.356 122.739 157.63V157.629Z" fill="#010101" stroke="#010101" stroke-width="1.5" stroke-linecap="round" stroke-linejoin="round"/>
<path d="M138.108 222.468C141.683 232.611 145.437 242.677 149.365 252.659" stroke="white" stroke-width="1.5" stroke-linecap="round" stroke-linejoin="round"/>
<path d="M287.157 109.943C295.348 116.041 303.972 120.714 312.252 126.877" stroke="white" stroke-width="1.5" stroke-linecap="round" stroke-linejoin="round"/>
<path d="M137.965 154.406C140.915 149.824 143.962 145.319 147.105 140.896C149.07 142.596 151.109 144.19 153.428 145.505C152.057 150.236 150.685 154.967 149.314 159.698C147.585 158.505 140.081 155.515 137.965 154.406Z" fill="#010101" stroke="#010101" stroke-width="1.5" stroke-linecap="round" stroke-linejoin="round"/>
<path d="M119.353 150.66C125.499 152.579 131.789 153.939 138.279 154.858C137.105 158.013 136.215 161.297 135.625 164.645C129.271 163.148 122.999 161.228 116.855 158.901C117.687 156.337 118.518 153.773 119.353 150.66Z" fill="#010101" stroke="#010101" stroke-width="1.5" stroke-linecap="round" stroke-linejoin="round"/>
<path d="M137.965 154.406C150.924 194.395 164.058 231.094 176.592 269.773" stroke="white" stroke-width="1.5" stroke-linecap="round" stroke-linejoin="round"/>
<path d="M113.794 201.474C128.106 194.124 142.749 187.559 157.652 181.813C158.424 181.514 159.294 181.857 159.699 182.641C161.367 185.871 162.725 189.295 163.744 192.838C164.013 193.772 163.558 194.77 162.735 195.133C161.722 195.58 160.711 196.04 159.704 196.549C165.361 213.494 171.018 230.439 176.18 247.125C162.999 253.975 149.818 260.825 137.042 267.492C132.461 255.124 115.823 211.178 113.794 201.475V201.474Z" fill="white" stroke="#010101" stroke-width="1.5" stroke-linecap="round" stroke-linejoin="round"/>
<path d="M132.455 216.072C131.393 213.607 130.438 211.087 130.017 208.421C136.134 204.048 142.803 200.62 149.772 198.266C149.988 198.194 150.225 198.123 150.433 198.219C150.673 198.33 150.791 198.623 150.887 198.89C151.81 201.461 152.733 204.033 153.657 206.603C146.556 209.808 139.447 212.993 132.455 216.072Z" stroke="#010101" stroke-width="1.5" stroke-linecap="round" stroke-linejoin="round"/>
<path d="M134.772 211.197C135.305 209.814 136.01 208.511 136.861 207.335C137.043 207.083 137.239 206.831 137.496 206.676C137.817 206.483 138.201 206.465 138.567 206.494C139.571 206.575 140.555 206.982 141.558 206.889C143.655 206.697 145.192 204.424 147.275 204.095" stroke="#010101" stroke-width="1.5" stroke-linecap="round" stroke-linejoin="round"/>
<path d="M154.335 183.106C156.15 187.931 158.688 192.919 159.912 197.172" stroke="#010101" stroke-width="1.5" stroke-linecap="round" stroke-linejoin="round"/>
<path d="M151.777 240.143C155.552 238.93 159.326 237.717 163.101 236.503C165.691 235.671 168.397 234.766 170.316 232.674C170.926 232.011 171.463 231.159 171.435 230.216C171.407 229.272 170.565 228.344 169.749 228.628C170.653 228.067 171.113 226.76 170.787 225.674C170.461 224.588 169.386 223.841 168.356 223.987C169.272 223.56 169.767 222.271 169.409 221.249C169.05 220.227 167.898 219.641 166.96 220.005C167.525 219.287 168.13 218.412 167.941 217.485C167.768 216.626 166.936 216.088 166.14 216.041C165.343 215.994 164.573 216.324 163.832 216.649C161.786 217.546 159.739 218.444 157.694 219.341C158.007 218.444 158.405 217.846 158.803 217.249C159.375 216.389 159.965 215.482 160.101 214.426C160.237 213.371 159.747 212.133 158.807 211.885C157.949 211.659 157.117 212.294 156.422 212.893C153.614 215.314 149.604 218.664 147.07 220.958C148.215 227.935 150.709 233.642 151.777 240.143Z" fill="white" stroke="#010101" stroke-width="1.5" stroke-linecap="round" stroke-linejoin="round"/>
<path d="M110.986 238.757C108.143 232.855 105.586 226.786 103.326 220.586C102.684 228.116 102.664 235.712 103.268 243.246C105.99 241.502 108.663 239.667 110.985 238.757H110.986Z" stroke="white" stroke-width="1.5" stroke-linecap="round" stroke-linejoin="round"/>
<path d="M111.136 238.31C122.33 230.304 134.159 223.38 146.444 217.641C152.184 228.026 155.921 239.799 159.253 247.594C145.23 255.134 133.47 264.464 120.108 273.346" fill="#010101"/>
<path d="M111.136 238.31C122.33 230.304 134.159 223.38 146.444 217.641C152.184 228.026 155.921 239.799 159.253 247.594C145.23 255.134 133.47 264.464 120.108 273.346" stroke="white" stroke-width="1.5" stroke-linecap="round" stroke-linejoin="round"/>
<path d="M137.965 154.406C140.469 155.984 142.902 157.952 145.412 159.52C147.941 154.941 150.472 150.36 153.002 145.781" stroke="white" stroke-width="1.5" stroke-linecap="round" stroke-linejoin="round"/>
<path d="M116.608 159.218C121.465 162.139 128.654 164.119 134.073 165.339C134.416 165.416 135.876 160.072 137.965 154.406" stroke="white" stroke-width="1.5" stroke-linecap="round" stroke-linejoin="round"/>
<path d="M397.405 299.222L401.924 308" stroke="#010101" stroke-width="1.5" stroke-linecap="round" stroke-linejoin="round"/>
<path d="M26.9509 289.858C30.4518 287.414 30.231 287.726 33.731 285.282" stroke="#010101" stroke-width="1.5" stroke-linecap="round" stroke-linejoin="round"/>
<path d="M370.925 63.1338L415.612 63.968L410.133 107.305" stroke="#010101" stroke-width="1.5" stroke-linecap="round" stroke-linejoin="round"/>
<path d="M54.0996 76.9198C52.9558 76.749 51.746 77.3595 51.1146 78.4249C50.4833 79.4903 50.4627 80.9577 51.0642 82.0448C52.1344 83.9803 55.0706 84.0718 56.2863 82.2421C57.5012 80.4132 56.62 77.2954 54.1005 76.9189L54.0996 76.9198Z" fill="#010101"/>
<path d="M400.361 227.138C399.855 227.062 399.32 227.332 399.041 227.803C398.762 228.274 398.753 228.923 399.019 229.403C399.492 230.259 400.79 230.3 401.328 229.491C401.865 228.682 401.476 227.304 400.361 227.138Z" fill="#010101"/>
<path d="M118.35 373.074C117.206 372.903 115.997 373.514 115.365 374.579C114.734 375.644 114.713 377.112 115.315 378.199C116.385 380.134 119.321 380.226 120.537 378.396C121.752 376.567 120.871 373.449 118.351 373.073L118.35 373.074Z" fill="#010101"/>
<path d="M222.41 46.7283L215.067 46.0177L212.131 38.76L208.914 45.895L201.56 46.9925L207.304 51.5655L205.405 60.217L211.963 55.8091L218.696 60.5275L216.695 51.842L222.41 46.7283Z" fill="#7B5FF1" stroke="#010101" stroke-width="1.5" stroke-linecap="round" stroke-linejoin="round"/>
<path d="M248.913 46.7283L241.57 46.0177L238.633 38.76L235.417 45.895L228.062 46.9925L233.807 51.5655L231.908 60.217L238.466 55.8091L245.198 60.5275L243.198 51.842L248.913 46.7283Z" fill="#7B5FF1" stroke="#010101" stroke-width="1.5" stroke-linecap="round" stroke-linejoin="round"/>
<path d="M274.849 46.7283L267.506 46.0177L264.569 38.76L261.353 45.895L253.999 46.9925L259.743 51.5655L257.844 60.217L264.402 55.8091L271.134 60.5275L269.134 51.842L274.849 46.7283Z" fill="#7B5FF1" stroke="#010101" stroke-width="1.5" stroke-linecap="round" stroke-linejoin="round"/>
<path d="M301.73 46.7283L294.387 46.0177L291.45 38.76L288.234 45.895L280.88 46.9925L286.624 51.5655L284.725 60.217L291.283 55.8091L298.015 60.5275L296.015 51.842L301.73 46.7283Z" fill="#7B5FF1" stroke="#010101" stroke-width="1.5" stroke-linecap="round" stroke-linejoin="round"/>
<path d="M343.688 44.6635L331.143 43.4481L326.125 31.0483L320.63 43.2395L308.066 45.1155L317.879 52.9271L314.636 67.7077L325.84 60.1764L337.342 68.2381L333.924 53.3999L343.688 44.6635Z" fill="#7B5FF1" stroke="#010101" stroke-width="1.5" stroke-linecap="round" stroke-linejoin="round"/>
<path d="M316.403 86.4999C314.685 89.8442 312.938 93.2735 312.34 97.0614C312.223 97.8012 312.273 98.7788 312.917 99.0214C313.275 99.1563 313.666 98.9827 313.995 98.776C316.966 96.9123 318.77 91.1701 320.519 87.9305C318.813 91.4522 314.861 99.4762 316.691 101.187C319.597 103.905 321.961 93.0678 323.031 90.7907C321.951 93.7161 320.396 97.9569 319.693 101.018C319.545 101.663 319.413 102.336 319.529 102.989C319.646 103.641 320.074 104.271 320.668 104.381C321.389 104.514 322.027 103.883 322.496 103.266C324.108 101.144 325.223 98.5665 325.705 95.8506C325.8 95.3156 325.871 94.7654 325.8 94.2257C325.644 93.0442 324.846 92.1081 324.071 91.2739C322.924 90.0367 321.742 88.8402 320.527 87.6842C319.757 86.9519 317.305 84.6192 316.404 86.4999H316.403Z" fill="white" stroke="#010101" stroke-width="1.5" stroke-linecap="round" stroke-linejoin="round"/>
<path d="M347.556 0.707764C347.899 3.21602 348.242 5.72333 348.586 8.23158L347.556 0.707764Z" fill="white"/>
<path d="M347.556 0.707764C347.899 3.21602 348.242 5.72333 348.586 8.23158" stroke="#010101" stroke-width="1.5" stroke-linecap="round" stroke-linejoin="round"/>
<path d="M360.864 10.2576C362.051 8.81007 364.815 4.07572 365.911 2.54321L360.864 10.2576Z" fill="white"/>
<path d="M360.864 10.2576C362.051 8.81007 364.815 4.07572 365.911 2.54321" stroke="#010101" stroke-width="1.5" stroke-linecap="round" stroke-linejoin="round"/>
<path d="M368.665 19.0619C371.216 17.9154 373.797 16.8509 376.403 15.8705L368.665 19.0619Z" fill="white"/>
<path d="M368.665 19.0619C371.216 17.9154 373.797 16.8509 376.403 15.8705" stroke="#010101" stroke-width="1.5" stroke-linecap="round" stroke-linejoin="round"/>
<path d="M389.727 136.336C405.892 135.791 425.91 135.246 442.075 134.701L389.727 136.336Z" fill="#7B5FF1"/>
<path d="M389.727 136.336C405.892 135.791 425.91 135.246 442.075 134.701" stroke="#010101" stroke-width="1.5" stroke-linecap="round" stroke-linejoin="round"/>
<path d="M391.08 148.815C399.198 148.732 431.565 148.84 439.683 148.757L391.08 148.815Z" fill="#7B5FF1"/>
<path d="M391.08 148.815C399.198 148.732 431.565 148.84 439.683 148.757" stroke="#010101" stroke-width="1.5" stroke-linecap="round" stroke-linejoin="round"/>
<path d="M390.403 161.696C397.845 161.529 405.287 161.364 412.729 161.198L390.403 161.696Z" fill="#7B5FF1"/>
<path d="M390.403 161.696C397.845 161.529 405.287 161.364 412.729 161.198" stroke="#010101" stroke-width="1.5" stroke-linecap="round" stroke-linejoin="round"/>
<path d="M378.478 163.553C378.151 164.007 377.796 164.432 377.417 164.83C374.161 168.272 369.349 169.635 364.774 169.805C360.161 169.975 355.446 169.103 351.386 166.683C350.202 165.981 349.076 165.129 348.047 164.157C345.55 161.814 343.607 158.77 342.707 155.308C341.69 151.397 342.025 147.155 343.222 143.308C346.278 133.43 355.941 126.036 365.231 128.009C368.062 128.612 373.241 130.308 376.67 134.254C379.102 137.057 381.27 141.314 381.958 145.118C383.122 151.527 382.196 158.466 378.477 163.555L378.478 163.553Z" fill="#FF8B37" stroke="#010101" stroke-width="1.5" stroke-linecap="round" stroke-linejoin="round"/>
<path d="M377.418 164.83C374.162 168.272 369.35 169.635 364.775 169.805C360.162 169.975 355.447 169.103 351.387 166.683C350.203 165.981 349.077 165.129 348.048 164.157C348.305 163.824 348.576 163.469 348.865 163.085C352.32 158.529 357.737 155.853 363.122 156.045C368.513 156.23 373.763 159.281 376.947 164.078C377.108 164.326 377.269 164.575 377.417 164.83H377.418Z" fill="white" stroke="#010101" stroke-width="1.5" stroke-linecap="round" stroke-linejoin="round"/>
<path d="M358.804 139.485C357.395 140.789 356.451 142.67 356.152 144.673C355.954 146.004 356.037 147.435 356.648 148.604C357.442 150.122 358.987 150.967 360.518 151.437C362.617 152.081 364.944 152.153 366.902 151.103C369.682 149.611 370.43 146.319 369.588 143.038C368.747 139.758 363.01 135.592 358.804 139.485Z" fill="white" stroke="#010101" stroke-width="1.5" stroke-linecap="round" stroke-linejoin="round"/>
</g>
</svg>
