<svg width="10" height="10" viewBox="0 0 10 10" fill="none" xmlns="http://www.w3.org/2000/svg">
<path d="M4.78332 1.4579C4.80094 1.41492 4.83095 1.37814 4.86954 1.35226C4.90812 1.32638 4.95353 1.31256 4.99999 1.31256C5.04645 1.31256 5.09186 1.32638 5.13044 1.35226C5.16902 1.37814 5.19903 1.41492 5.21665 1.4579L6.10207 3.58749C6.11864 3.62734 6.14589 3.66184 6.18081 3.6872C6.21573 3.71256 6.25697 3.7278 6.29999 3.73124L8.59915 3.9154C8.80707 3.93207 8.89124 4.19165 8.7329 4.32707L6.98124 5.8279C6.94851 5.8559 6.92412 5.89236 6.91075 5.9333C6.89737 5.97424 6.89552 6.01807 6.9054 6.05999L7.44082 8.30374C7.45158 8.34875 7.44876 8.39595 7.43272 8.43936C7.41667 8.48278 7.38812 8.52046 7.35067 8.54766C7.31322 8.57486 7.26855 8.59034 7.2223 8.59217C7.17605 8.59399 7.1303 8.58207 7.09082 8.5579L5.12207 7.35582C5.08531 7.33336 5.04307 7.32148 4.99999 7.32148C4.95691 7.32148 4.91466 7.33336 4.8779 7.35582L2.90915 8.55832C2.86968 8.58248 2.82393 8.59441 2.77768 8.59258C2.73143 8.59076 2.68676 8.57527 2.64931 8.54808C2.61186 8.52088 2.5833 8.48319 2.56726 8.43978C2.55121 8.39637 2.54839 8.34917 2.55915 8.30415L3.09457 6.05999C3.1045 6.01807 3.10267 5.97423 3.0893 5.93328C3.07592 5.89233 3.0515 5.85587 3.01874 5.8279L1.26707 4.32707C1.2318 4.297 1.20624 4.25714 1.19364 4.21254C1.18103 4.16793 1.18195 4.12059 1.19627 4.07651C1.2106 4.03243 1.23768 3.99359 1.27409 3.96491C1.3105 3.93623 1.35461 3.919 1.40082 3.9154L3.69999 3.73124C3.74301 3.7278 3.78425 3.71256 3.81916 3.6872C3.85408 3.66184 3.88133 3.62734 3.8979 3.58749L4.78332 1.4579Z" fill="#FFA601"/>
</svg>
